<svg width="1075" height="805" viewBox="0 0 1075 805" fill="none" xmlns="http://www.w3.org/2000/svg">
<path d="M1071.97 354.657C1072.67 358.964 1072.06 363.341 1072.7 367.621C1072.89 368.918 1072.96 370.196 1072.9 371.46C1072.73 375.346 1073.01 379.099 1074.3 382.852C1074.86 384.458 1074.21 386.467 1074.18 388.294C1074.09 392.061 1073.99 395.791 1074.7 399.568C1075.12 401.783 1074.37 404.224 1074.18 406.548C1073.65 412.863 1074.71 419.266 1073.03 425.519C1072.6 427.127 1073.31 428.857 1073.28 430.601C1073.2 436.235 1071.69 441.622 1071.15 447.149C1070.96 449.181 1070.7 451.299 1071.22 453.373C1071.32 453.782 1071.28 454.294 1071.12 454.691C1068 462.771 1067.23 471.407 1065.4 479.779C1064.3 484.774 1062.56 489.573 1061.62 494.581C1060.58 500.167 1059.08 505.662 1058.43 511.332C1058.25 512.892 1057.04 514.249 1056.3 515.673C1053.85 520.36 1052.65 525.487 1050.94 530.406C1047.91 539.151 1044.59 547.709 1040.45 556.023C1036.79 563.389 1032.95 570.736 1030.53 578.688C1029.87 580.85 1028.02 582.511 1026.74 584.369C1023.28 589.364 1020.69 594.843 1017.45 599.912C1012.02 608.375 1006.73 616.916 1000.59 624.945C994.82 632.499 988.91 639.937 982.794 647.192C976.673 654.451 970.264 661.518 963.461 668.128C959.957 671.529 956.864 675.25 953.426 678.661C951.314 680.759 948.403 682.029 946.097 683.969C939.122 689.842 931.377 694.762 924.879 701.224C924.13 701.973 923.01 702.344 922.201 703.046C916.291 708.15 909.443 711.823 902.89 715.964C898.127 718.97 893.248 721.8 888.73 725.269C883.879 728.991 878.296 731.771 872.967 734.857C870.096 736.523 866.908 737.892 864.296 739.715C861.291 741.816 857.737 741.465 854.81 743.465C851.894 745.46 848.406 746.674 845.207 748.268C839.868 750.927 834.279 753.005 828.763 755.11C821.328 757.945 814.17 761.556 806.314 763.358C801.673 764.423 797.293 766.587 792.697 767.889C784.591 770.181 776.924 773.797 768.48 775.104C762.797 775.984 757.33 778.201 751.669 779.261C744.911 780.526 738.341 782.53 731.738 784.271C723.316 786.489 714.683 787.258 706.223 789.108C698.594 790.776 690.871 792.106 683.17 793.374C676.506 794.472 669.714 795.042 662.994 795.879C653.774 797.028 644.515 797.784 635.311 799.072C629.762 799.848 624.134 800.072 618.584 800.851C611.499 801.846 604.352 802.072 597.244 802.71C591.035 803.269 584.77 803.929 578.455 803.505C571.851 803.062 565.237 803.706 558.628 804.16C553.681 804.498 548.661 803.776 543.712 804.101C537.911 804.483 532.069 804.553 526.344 804.214C520.686 803.878 515.031 804.182 509.368 803.777C503.435 803.353 497.44 803.259 491.476 802.982C483.969 802.634 476.444 802.803 468.95 802.046C461.741 801.317 454.473 801.049 447.312 800.013C441.475 799.169 435.713 798.539 429.796 798.785C427.043 798.899 424.257 797.75 421.46 797.358C409.418 795.674 397.492 792.971 385.361 792.241C380.663 791.959 376.437 790.47 371.984 789.62C364.755 788.242 357.536 786.911 350.182 786.367C348.569 786.247 347.018 785.434 345.415 785.032C338.773 783.371 331.989 782.071 325.501 780.045C315.159 776.817 304.471 774.831 294.311 770.904C290.328 769.364 286.232 767.848 281.847 767.008C278.771 766.418 275.478 764.674 272.201 763.608C267.593 762.109 263.127 760.155 258.49 758.766C253.979 757.415 249.837 755.252 245.488 753.558C240.317 751.544 235.09 749.669 229.898 747.703C227.772 746.898 225.773 745.698 223.858 744.588C219.313 741.953 214.111 741.077 209.547 738.459C204.844 735.761 199.81 733.623 195.04 730.975C188.115 727.133 181.664 722.548 174.872 718.52C170.837 716.125 167.186 713.292 163.393 710.596C153.661 703.679 144.449 696.1 134.972 688.864C127.912 683.475 121.98 676.925 115.115 671.384C111.912 668.8 109.593 665.191 105.801 663.274C105.565 660.052 102.697 658.731 100.922 656.656C94.1115 648.695 87.1063 640.921 81.4323 632.033C77.7958 626.337 73.3387 621.166 69.7066 615.468C64.0143 606.537 57.8457 597.925 52.9091 588.471C50.5494 583.95 47.5799 579.51 45.1387 575.033C42.4254 570.056 39.2252 565.224 37.2392 559.763C35.6607 555.424 32.9813 551.498 31.0252 547.279C29.5371 544.071 28.5941 540.61 27.101 537.405C22.3966 527.312 18.9087 516.753 16.0001 506.076C13.9998 498.732 12.2068 491.28 11.0547 483.648C10.0739 477.148 8.91846 470.527 6.79555 464.118C4.77189 458.009 4.83449 451.351 3.89251 444.947C3.25548 440.615 3.11692 436.209 2.57636 431.925C1.85782 426.233 1.88719 420.485 0.942441 414.776C0.131866 409.878 -0.361019 404.591 0.792194 399.448C1.18418 397.699 1.02557 395.776 0.851481 393.959C0.315348 388.385 2.49261 383.045 2.23092 377.537C1.96202 371.864 3.56432 366.349 3.29653 360.623C3.21448 358.865 4.40816 356.372 4.78406 354.093C5.51424 349.658 6.30266 345.211 6.96354 340.781C7.57674 336.672 9.02381 332.693 8.96394 328.476C8.93899 326.763 10.7154 325.251 10.4054 323.818C9.62148 320.186 12.189 317.373 12.2256 313.838C12.2578 310.788 13.5308 307.5 14.3463 304.348C15.7945 298.747 17.2604 293.09 19.4548 287.759C22.4504 280.48 24.9581 273.029 27.7458 265.683C31.1932 256.598 35.2949 247.803 38.9148 238.799C41.28 232.917 43.7471 227.08 45.9743 221.141C46.1877 220.571 46.1739 217.514 48.4653 219.893C48.9039 220.348 49.4483 219.318 49.7627 218.788C53.7485 212.055 57.6533 205.273 61.7367 198.601C63.6484 195.476 65.9837 192.613 67.9757 189.533C70.1957 186.102 72.4788 182.677 74.294 179.029C75.8847 175.832 78.9867 174.19 81.037 171.443C84.2454 167.145 88.3875 163.485 91.7002 159.327C97.9975 151.426 106.808 146.154 112.838 138.17C118.111 131.19 124.605 125.51 130.987 119.7C137.163 114.077 143.829 109.039 150.654 104.206C157.032 99.6907 163.201 94.8821 169.525 90.292C176.044 85.5616 183.059 81.6191 190.266 78.0768C194.753 75.8724 198.761 72.955 202.934 70.3093C212.335 64.3486 222.375 59.6753 232.312 54.7564C240.146 50.8788 248.182 47.4879 256.418 44.6514C262.407 42.5889 268.499 40.7493 274.542 38.8321C282.935 36.1698 291.686 34.7997 299.896 31.6023C308.121 28.3989 316.716 26.5881 325.228 24.4458C329.158 23.4567 333.024 22.0767 337.009 21.4746C343.596 20.4794 350.138 19.1344 356.579 17.6357C366.389 15.3526 376.399 14.6257 386.263 12.8621C391.542 11.9179 396.999 11.481 402.345 10.7314C407.305 10.0356 412.283 9.12801 417.239 8.43886C427.709 6.98293 438.216 5.65673 448.789 5.01858C451.54 4.85281 454.26 4.14591 457.01 4.00343C467.171 3.47727 477.353 3.28489 487.498 2.56247C493.33 2.1472 499.134 2.22815 504.955 2.11893C512.18 1.98254 519.431 1.6205 526.648 0.821011C532.007 0.227772 537.43 0.872031 542.811 0.791639C554.045 0.624201 565.232 2.02469 576.492 1.37656C581.482 1.08992 586.555 2.26974 591.622 2.19379C597.56 2.10508 603.465 2.69166 609.392 2.88405C616.683 3.1219 623.846 4.49301 631.098 5.06685C638.727 5.67173 646.345 6.50613 653.951 7.26626C661.076 7.9787 668.233 8.7549 675.33 9.82163C681.185 10.7021 686.945 12.1308 692.872 12.6171C704.21 13.5463 715.293 16.1088 726.365 18.4995C731.799 19.6722 737.31 20.5288 742.693 21.9414C749.701 23.7777 756.831 25.1754 763.739 27.3089C771.13 29.5898 778.737 31.0491 786 33.8079C790.513 35.5194 795.32 36.4481 800.016 37.6512C808.975 39.9488 817.741 42.7508 826.246 46.455C832.4 49.1334 838.898 51.0384 844.88 54.1017C852.154 57.8252 859.656 61.0564 867.007 64.6059C875.645 68.7747 883.74 73.8238 891.918 78.7211C898.815 82.8522 905.734 87.0059 912.271 91.7519C914.893 93.6535 918.081 94.6022 920.682 96.8116C924.845 100.352 929.242 103.651 933.805 106.727C940.575 111.297 946.673 116.786 952.628 122.319C957.069 126.449 961.671 130.328 966.295 134.225C967.819 135.509 967.869 138.021 969.582 139.665C974.201 144.1 978.409 148.963 982.9 153.537C984.99 155.663 986.404 158.242 988.145 160.592C992.203 166.067 997.093 170.887 1000.72 176.69C1004.63 182.92 1009.8 188.21 1013.5 194.645C1017.98 202.428 1023.27 209.747 1028.17 217.29C1030.5 220.87 1031.45 225.069 1033.24 228.897C1036.14 235.052 1039.12 241.198 1041.46 247.57C1044.64 256.209 1048.75 264.449 1051.92 273.059C1055.41 282.518 1058.67 292.087 1061.4 301.788C1063.61 309.68 1065.13 317.777 1066.41 325.912C1067.44 332.53 1069.12 339.049 1070.49 345.616C1071.12 348.611 1071.18 351.693 1071.97 354.657Z" fill="#181818"/>
<path d="M1063.58 336.737C1063.03 338.93 1063.29 340.197 1064.34 341.326C1065.58 342.673 1064.71 344.347 1064.89 345.86C1065.68 352.527 1066.43 359.2 1067.04 365.885C1067.59 371.987 1067.76 378.095 1067.59 384.243C1067.53 386.19 1067.56 388.546 1068.24 390.473C1069 392.64 1068.58 394.607 1068.45 396.704C1068.05 403.284 1067.61 409.87 1067.52 416.459C1067.46 420.939 1066.86 425.4 1066.36 429.782C1065.96 433.309 1066.27 436.883 1065.53 440.379C1064.63 444.652 1063.9 448.964 1063.17 453.272C1062.54 456.935 1061.85 460.629 1061.08 464.213C1059.69 470.578 1059.66 477.183 1057.72 483.365C1055.99 488.9 1055.89 494.737 1054.06 500.196C1051.37 508.242 1050.1 516.663 1047.21 524.685C1045.39 529.764 1043.53 534.863 1041.5 539.841C1039.62 544.443 1037.41 548.976 1035.43 553.545C1032.53 560.199 1029.48 566.778 1026.5 573.388C1023.92 579.1 1021.01 584.625 1017.77 589.972C1012.89 598.062 1007.79 606.035 1002.12 613.591C999.462 617.133 997.499 621.145 994.067 624.236C992.132 625.975 991.251 628.924 989.305 631.045C987.813 632.679 986.821 634.758 985.113 636.38C981.249 640.055 978.709 644.888 974.706 648.528C972.017 650.969 969.855 653.978 967.388 656.665C962.348 662.142 957.059 667.393 951.393 672.199C943.398 678.974 935.253 685.571 927.026 692.067C918.964 698.429 910.587 704.347 902.17 710.186C896.842 713.881 891.415 717.551 885.288 719.985C883.298 720.773 881.768 722.495 879.877 723.64C872.736 727.956 865.517 732.073 857.921 735.558C852.139 738.213 846.561 741.342 840.695 743.805C834.103 746.575 827.334 749.045 820.836 751.947C812.575 755.636 803.837 757.802 795.526 761.24C790.708 763.235 785.613 764.504 780.473 765.612C777.119 766.335 773.998 768.039 770.577 768.844C765.847 769.958 761.235 771.548 756.527 772.753C751.388 774.067 746.121 774.918 741.048 776.438C735.298 778.164 729.377 778.921 723.528 780.063C713.077 782.104 702.565 783.817 692.053 785.565C683.188 787.041 674.317 788.547 665.407 789.717C656.752 790.852 648.142 792.334 639.499 793.38C632.895 794.181 626.248 795.001 619.528 795.241C614.466 795.423 609.365 796.58 604.215 796.883C600.073 797.126 595.909 797.187 591.784 797.235C582.78 797.34 573.837 798.687 564.85 798.374C554.73 798.022 544.596 798.142 534.483 797.409C532.913 797.294 530.179 795.943 529.831 799.392C529.818 799.52 529.187 799.69 528.858 799.663C524.38 799.306 519.886 799.556 515.41 799.531C507.599 799.488 499.859 798.425 492.043 798.358C487.827 798.322 483.504 797.799 479.24 797.398C475.805 797.075 472.372 796.218 468.842 796.785C465.553 797.314 462.262 796.416 459.036 796.059C448.119 794.854 437.199 793.825 426.242 793.051C417.269 792.418 408.346 791.255 399.427 790.003C395.539 789.456 392.243 787.288 388.349 787.132C382.041 786.879 375.926 785.319 369.771 784.123C359.705 782.167 349.663 780.063 339.66 777.805C332.858 776.269 326.128 774.4 319.384 772.616C311.165 770.443 302.99 768.157 294.867 765.604C286.651 763.022 278.564 760.117 270.464 757.237C265.571 755.497 260.858 753.259 255.995 751.426C250.338 749.295 244.414 747.861 238.98 745.145C233.214 742.262 227.337 739.61 221.595 736.668C218.531 735.098 215.16 734.075 212.109 732.352C207.145 729.55 201.793 727.5 196.915 724.508C192.386 721.73 187.709 719.194 183.185 716.409C178.445 713.491 173.892 710.238 169.142 707.379C164.749 704.734 160.276 702.141 156.272 699.026C151.979 695.686 147.746 692.194 143.813 688.342C140.796 685.388 137.567 682.56 134.17 679.948C131.171 677.644 128.548 674.744 125.608 672.412C119.81 667.811 115.214 662.074 109.937 657.003C105.627 652.864 101.563 648.413 97.729 643.737C92.0012 636.752 86.7453 629.446 81.5453 622.099C74.2939 611.854 66.5047 601.962 60.3583 590.966C56.9686 584.902 53.4723 578.886 50.3819 572.67C46.4593 564.779 42.3953 556.985 39.3815 548.607C36.9636 541.884 33.6725 535.385 31.0834 528.687C29.4073 524.352 27.9741 519.854 26.476 515.421C25.1526 511.504 24.8466 507.138 23.1195 503.674C21.4696 500.364 22.233 496.633 20.1034 493.681C19.7619 493.207 19.5806 492.342 19.7652 491.811C21.026 488.193 18.4989 485.45 17.7455 482.299C16.8223 478.439 16.1481 474.517 15.4241 470.61C14.6445 466.409 13.9371 462.194 13.1886 457.986C12.1441 452.115 10.9204 446.269 10.0821 440.368C8.93335 432.284 8.71048 424.114 8.60902 415.96C8.54581 410.925 8.91506 405.883 9.1202 400.845C9.37357 394.61 9.97347 388.368 9.81601 382.145C9.71344 378.064 10.8261 374.222 11.0485 370.232C11.2885 365.924 11.522 361.575 12.3093 357.347C13.5562 350.647 13.4475 343.762 15.4462 337.153C16.2795 334.397 16.142 331.344 16.4098 328.423C16.6615 325.689 17.6978 323.147 18.2943 320.531C18.8904 317.912 19.1653 315.195 20.003 312.591C21.6259 307.541 23.822 302.653 25.2031 297.573C27.7656 288.152 31.3644 279.082 33.9719 269.666C36.3604 261.04 39.6942 252.568 43.8851 244.598C48.9798 234.909 54.773 225.589 59.8882 215.91C63.8468 208.421 68.3022 201.255 73.1135 194.333C79.3032 185.43 85.9331 176.834 92.7265 168.373C97.1458 162.869 102.139 157.821 106.531 152.358C110.815 147.028 115.913 142.611 120.581 137.764C127.051 131.045 133.597 124.364 140.877 118.388C147.803 112.702 155.741 108.522 162.526 102.729C171.234 95.2944 181.018 89.3769 190.352 82.8291C198.262 77.281 206.743 72.682 215.587 68.8414C222.787 65.715 230.118 62.8364 237.245 59.5886C243.501 56.7377 249.886 54.2045 256.149 51.3858C261.773 48.8554 267.78 47.3739 273.632 45.475C280.021 43.402 286.403 41.2941 292.855 39.4345C301.135 37.0477 309.499 34.9509 317.796 32.6234C325.145 30.5625 332.677 29.4088 340.109 27.8021C349.179 25.8405 358.281 23.9992 367.339 21.9634C373.715 20.5302 380.315 20.3927 386.654 18.6845C392.607 17.0799 398.816 17.02 404.817 15.9134C411.061 14.7613 417.345 13.8204 423.609 13.2011C439.536 11.6266 455.455 9.85627 471.465 9.17321C476.279 8.96752 481.069 7.6685 485.865 7.69899C492.636 7.74279 499.322 6.67107 506.099 6.81578C513.205 6.96658 520.344 6.30182 527.426 6.33786C531.177 6.35615 535.271 5.03053 539.091 7.11685C539.65 7.42289 541.574 6.66221 542.922 6.53525C544.265 6.40828 545.626 5.50623 546.33 7.49829C546.374 7.62304 546.842 7.69236 547.08 7.63913C555.028 5.86551 563.019 6.61951 571.032 7.00762C573.771 7.14068 576.737 8.07268 579.016 7.75222C583.507 7.11962 587.92 8.15639 592.317 7.39017C594.956 6.93 597.356 8.74742 600.101 8.12923C605.556 6.90062 611.073 7.95737 616.562 8.08822C617.959 8.12149 619.556 7.6452 620.648 9.10723C620.775 9.27356 621.164 9.31904 621.419 9.29853C628.454 8.72747 635.457 9.77535 642.298 10.8299C648.547 11.7924 654.878 12.3989 661.116 13.3564C666.599 14.1963 672.093 15.517 677.682 15.7604C682.506 15.9705 687.046 17.6566 691.798 18.2991C696.887 18.9872 702.033 19.2699 707.067 20.4093C712.212 21.5741 717.363 22.7784 722.563 23.6422C725.269 24.0912 728.069 24.1334 730.735 24.8093C736.862 26.36 742.999 27.9224 749.131 29.3633C754.454 30.6125 759.582 32.6095 765.077 33.297C768.592 33.7367 771.952 35.3257 775.434 36.1856C779.913 37.2933 784.493 38.0208 788.951 39.2128C795.144 40.8705 801.259 42.7872 807.285 45.0376C811.726 46.6948 816.156 48.4496 820.747 49.7713C825.277 51.0748 829.623 53.0491 833.987 54.8671C837.973 56.5248 842.076 58.0257 845.78 60.1963C854.523 65.3292 864.741 67.5563 872.891 73.6328C876.001 75.9476 879.566 77.261 882.749 79.3241C887.251 82.2442 892.141 84.7907 896.748 87.6815C901.123 90.4254 905.331 93.4326 909.628 96.3018C911.845 97.7816 914.069 99.2514 916.336 100.652C917.65 101.465 919.097 102.084 919.613 103.733C919.807 104.346 920.395 104.472 920.888 104.692C925.351 106.678 928.606 110.37 932.592 112.988C940.071 117.893 945.826 124.716 952.59 130.41C955.972 133.255 958.706 136.918 961.91 139.958C966.107 143.942 969.9 148.247 973.631 152.608C981.387 161.671 989.377 170.531 996.279 180.319C1003.42 190.444 1010.5 200.597 1017.07 211.105C1020.42 216.46 1022.84 222.293 1025.94 227.772C1032.11 238.676 1037.1 250.126 1041.89 261.69C1044.96 269.112 1047.85 276.601 1050.24 284.243C1052.25 290.684 1054.5 297.05 1056.12 303.643C1057.54 309.419 1059.36 315.133 1060.66 320.952C1061.88 326.399 1062.71 331.933 1063.58 336.737Z" fill="#DFD4BF"/>
<path d="M19.8055 447.499C18.6911 445.22 20.3599 441.278 18.4083 437.772C17.0998 435.431 18.2142 432.459 16.5066 429.885C15.9854 429.101 16.2904 426.035 16.9058 424.187C18.5857 419.096 17.8039 413.951 17.8927 408.775C18.0423 399.452 15.869 390.188 17.244 380.877C18.2974 373.754 17.8871 366.39 19.7611 359.487C20.8367 355.514 20.2767 351.318 22.1507 347.511C23.1099 345.56 22.256 343.182 22.7051 340.979C24.13 334.018 25.7323 327.099 27.2681 320.169C29.1753 311.533 30.955 302.824 33.4111 294.368C35.1409 288.401 36.6213 282.313 38.7891 276.434C43.2467 264.335 48.7023 252.681 53.9805 240.942C57.7617 232.52 62.7349 224.738 67.5085 216.866C73.4576 207.049 79.3068 197.164 86.0487 187.846C90.412 181.817 95.2578 176.197 100.209 170.664C106.219 163.953 112.04 157.053 118.344 150.628C127.869 140.923 137.3 131.127 147.618 122.205C155.07 115.759 163.624 110.855 171.12 104.561C176.687 99.886 183.479 97.1926 189.034 92.5636C190.337 91.4786 192.189 91.0822 193.686 90.2046C199.319 86.9129 204.78 83.3086 210.562 80.3108C214.044 78.5033 217.798 77.1461 221.346 75.4046C226.646 72.8043 231.841 69.9662 237.247 67.6143C243.884 64.7246 250.648 62.0928 257.45 59.6017C265.983 56.4764 274.71 53.8589 283.176 50.5595C292.452 46.9419 302.287 45.5309 311.729 42.6384C317.373 40.9097 323.267 40.1562 328.822 38.2651C332.271 37.093 336.296 37.7605 339.218 34.9906C346.165 34.8487 352.785 32.6731 359.604 31.6884C370.41 30.1294 381.105 27.8246 391.883 26.0715C397.91 25.0918 404.119 25.0724 410.046 23.7374C416.272 22.3352 422.532 21.3661 428.825 21.0378C439.553 20.4779 450.237 19.3419 460.932 18.4842C473.678 17.4618 486.457 17.2189 499.187 16.2221C504.237 15.8262 509.302 15.8772 514.359 15.2723C521.579 14.4085 528.915 14.2583 536.194 14.642C546.147 15.167 556.1 14.9347 566.047 14.882C569.89 14.861 573.783 14.9402 577.669 14.6414C580.786 14.4019 584.478 15.0184 587.736 15.7957C591.705 16.7427 595.606 15.9327 599.513 16.4206C607.518 17.4213 615.656 16.5852 623.607 17.5427C630.878 18.4182 638.194 19.0059 645.447 20.1208C650.613 20.9142 655.866 21.1404 661.082 21.5973C668.052 22.2077 674.933 23.5389 681.873 24.2957C687.51 24.9106 692.99 26.4219 698.803 26.3587C702.181 26.3221 705.759 28.0802 709.347 28.7439C715.57 29.8943 721.659 31.9102 727.913 32.708C733.414 33.4094 738.38 35.6953 743.715 36.8025C748.323 37.7583 753.009 38.605 757.469 40.0043C762.005 41.427 766.693 42.0491 771.223 43.4673C777.253 45.3562 783.571 46.3315 789.593 48.2415C794.782 49.8876 800.091 51.0319 805.28 52.6309C805.941 52.8349 806.261 53.3982 806.721 53.8379C807.677 54.7505 808.595 55.8516 810.222 54.6413C811.084 54.0003 812.155 54.761 813.111 55.0893C817.725 56.6749 821.683 59.7681 826.447 60.9751C834.156 62.9278 841.151 66.6685 848.205 70.0827C855.81 73.7635 863.926 76.2651 871.143 80.9206C878.427 85.62 886.428 89.1933 893.893 93.6348C897.357 95.6967 900.105 98.9379 903.506 101.137C912.07 106.674 919.725 113.421 927.816 119.556C931.024 121.988 934.41 124.653 937.478 127.527C943.189 132.878 948.448 138.673 954.221 143.944C957.027 146.506 959.978 148.936 962.559 151.709C964.983 154.313 966.889 157.391 969.225 160.086C979.904 172.41 989.982 185.18 998.828 198.904C1003.65 206.387 1008.79 213.668 1013.51 221.216C1016.45 225.926 1018.95 230.922 1021.49 235.87C1023.03 238.884 1025.38 241.396 1026.57 244.64C1028.73 250.537 1032.7 255.554 1033.95 262.012C1035.12 268.083 1037.79 273.833 1040.47 279.512C1041.74 282.181 1042.25 285.384 1043.1 288.348C1044.48 293.169 1046.4 297.826 1047.68 302.634C1048.47 305.588 1049.31 308.58 1049.94 311.596C1050.21 312.887 1050.45 314.122 1051.36 315.127C1051.8 315.618 1052.12 316.139 1052.07 316.854C1051.68 322.652 1054.1 327.957 1054.95 333.525C1055.55 337.411 1056.02 341.357 1057 345.125C1057.67 347.701 1056.52 350.677 1058.84 352.984C1059.41 353.556 1058.45 355.17 1058.53 356.504C1058.91 363.053 1059.73 369.55 1060.33 376.072C1060.78 380.897 1060.78 385.764 1060.98 390.612C1061.25 397.074 1061.75 403.537 1061.72 409.997C1061.69 415.059 1061.1 420.13 1060.52 425.17C1060.36 426.643 1060.23 428.101 1060.28 429.56C1060.39 433.468 1059.17 437.156 1058.59 440.948C1057.51 447.935 1056.62 454.955 1055.88 461.985C1055.4 466.592 1053.44 470.845 1052.97 475.417C1052.24 482.449 1048.83 488.767 1047.67 495.644C1047.08 499.187 1045.01 502.437 1045.66 506.238C1045.85 507.325 1044.52 507.913 1044.14 509.007C1040.64 519.252 1037.09 529.483 1033.34 539.639C1030.08 548.475 1025.73 556.81 1021.35 565.15C1019.38 568.924 1017.53 572.86 1015.58 576.646C1013.81 580.094 1011.86 583.588 1009.64 586.873C1005.87 592.442 1002.12 598.057 998.926 603.959C993.376 614.226 985.431 622.702 978.722 632.094C976.214 635.605 972.557 637.954 969.953 641.413C965.377 647.492 959.414 652.389 954.794 658.461C953.302 660.421 950.894 661.185 949.182 662.859C944.766 667.175 939.774 670.813 935.099 674.825C932.398 677.142 929.894 679.7 927.403 682.247C925.189 684.511 922.207 685.609 919.794 687.597C914.126 692.268 907.773 696.012 901.956 700.51C899.369 702.51 895.903 703.919 893.737 705.972C890.955 708.61 886.444 708.154 884.577 711.963C884.352 712.422 882.248 712.203 880.929 713.034C874.358 717.173 867.343 720.53 860.418 724.04C853.699 727.446 847.044 730.996 840.212 734.161C835.051 736.553 829.518 738.158 824.536 740.941C815.736 745.859 805.984 748.012 796.518 751.036C790.504 752.955 784.793 755.752 778.66 757.388C774.855 758.403 771.154 759.818 767.337 760.773C760.043 762.6 752.699 764.224 745.378 765.935C736.925 767.91 728.497 769.999 720.013 771.828C714.06 773.112 708.186 774.68 702.144 775.687C693.639 777.105 685.14 778.696 676.668 780.375C672.336 781.234 667.8 781.015 663.372 781.454C654.665 782.316 645.979 783.42 637.264 784.194C629.839 784.853 622.483 786.085 615.025 786.493C608.995 786.823 603.003 787.784 596.977 788.234C592.155 788.595 587.309 788.581 582.472 788.832C572.172 789.367 561.839 789.322 551.547 789.966C547.481 790.22 543.37 789.745 539.253 790.88C537.668 791.317 535.264 790.009 533.186 790.276C527.666 790.983 522.163 791.081 516.647 790.293C509.624 789.289 502.536 789.85 495.478 789.436C486.685 788.921 477.88 788.728 469.104 787.717C463.005 787.014 456.845 786.701 450.691 786.385C443.484 786.015 436.32 784.776 429.129 784.02C421.112 783.177 413.068 782.626 405.073 781.614C400.194 780.996 395.476 779.389 390.541 778.825C382.968 777.957 375.4 776.988 367.876 775.766C364.355 775.194 360.791 774.221 357.331 773.89C351.781 773.361 346.525 771.641 341.397 770.089C335.902 768.427 330.347 766.812 324.83 765.165C316.392 762.644 307.704 760.94 299.321 758.249C294.143 756.584 288.875 755.129 283.747 753.132C278.147 750.951 272.381 749.022 266.682 747.005C258.138 743.983 249.761 740.557 241.488 736.811C234.042 733.438 226.935 729.31 219.272 726.474C214.011 724.526 209.814 720.838 204.763 718.603C199.058 716.075 194.151 712.204 188.934 708.86C186.012 706.987 182.974 705.261 179.875 703.7C176.77 702.137 173.837 700.33 171.497 697.795C169.174 695.276 165.792 694.582 163.242 692.429C158.263 688.23 152.686 684.862 147.895 680.284C143.837 676.408 139.335 672.611 133.94 670.353C133.508 670.171 133.175 669.954 132.898 669.536C127.975 662.123 120.939 656.679 114.652 650.594C112.04 648.072 110.36 645.012 107.888 642.477C103.619 638.097 100.314 632.885 95.8288 628.607C93.855 626.725 92.6075 623.818 90.9387 621.43C88.1499 617.443 85.3223 613.496 82.2841 609.699C78.4419 604.904 75.1818 599.692 72.1602 594.372C68.9057 588.641 65.8342 582.772 62.4355 577.153C58.7818 571.111 55.6936 564.78 52.1231 558.707C50.1549 555.364 49.3787 551.393 47.5103 547.908C42.6202 538.771 39.5487 528.898 35.9282 519.234C33.4666 512.677 31.5427 505.942 29.7463 499.269C27.3401 490.342 24.4294 481.477 23.8362 472.014C23.5312 467.123 21.757 462.185 21.0862 457.18C20.7092 454.37 20.3433 451.559 19.8055 447.499Z" fill="#181818"/>
<path d="M992.021 602.376C991.488 603.959 990.418 605.201 989.431 606.501C985.622 611.519 981.836 616.556 978.021 621.575C977.356 622.451 976.652 623.303 975.898 624.104C966.589 634.012 957.402 644.038 947.905 653.756C942.133 659.664 936.112 665.391 929.758 670.664C920.799 678.105 911.479 685.096 901.61 691.369C896.265 694.764 891.064 698.442 885.576 701.58C879.233 705.208 872.979 709.058 866.126 711.786C863.642 712.775 861.586 714.782 859.196 716.086C849.987 721.121 840.55 725.658 830.914 729.875C821.933 733.808 812.945 737.726 803.675 740.849C793.064 744.425 782.374 747.801 771.729 751.267C760.53 754.911 749.136 757.825 737.865 761.138C726.892 764.362 715.737 767.06 704.272 768.582C696.499 769.614 688.665 770.888 680.941 772.466C673.346 774.017 665.661 774.734 657.982 775.284C650.819 775.797 643.734 776.841 636.631 777.704C626.469 778.939 616.245 779.212 606.082 780.285C594.489 781.509 582.896 782.753 571.274 783.569C565.073 784.004 558.816 784.08 552.574 783.686C548.44 783.425 544.387 784.82 539.445 784.257C541.292 785.724 542.91 784.842 544.76 785.907C518.816 787.734 493.628 786.547 468.472 783.763C471.719 782.641 475.025 783.313 478.447 783.28C478.138 782.169 477.322 782.23 476.695 782.243C474.02 782.294 471.36 782.164 468.694 781.95C468.2 781.91 466.108 780.67 466.916 783.253C467.055 783.699 465.012 783.97 463.939 783.879C459.998 783.542 456.064 783.106 452.126 782.734C444.88 782.049 437.63 781.412 430.388 780.694C427.458 780.404 424.542 779.973 421.63 779.534C421.445 779.506 419.021 779.917 421.126 778.398C421.538 778.1 420.312 777.706 419.757 777.664C407.438 776.724 395.351 774.231 383.227 772.061C373.991 770.408 364.855 768.195 355.673 766.239C350.117 765.055 344.46 764.36 338.689 762.458C340.682 764.628 352.399 767.392 359.644 768.47C366.823 769.538 373.838 771.669 380.986 773.001C388.163 774.338 395.417 775.265 402.607 776.617C398.058 777.093 393.614 776.276 389.166 775.612C380.549 774.326 371.935 773.02 363.334 771.626C361.011 771.249 358.77 770.369 356.447 769.987C345.578 768.201 335.077 764.927 324.5 762.01C316.115 759.698 307.821 757.037 299.546 754.31C291.371 751.618 283.29 748.618 275.016 746.187C269.779 744.648 264.736 742.327 259.79 739.972C256.787 738.544 253.573 737.847 250.559 736.473C243.014 733.035 235.145 730.431 227.867 726.237C223.741 723.86 219.002 722.314 214.628 720.171C207.108 716.487 199.657 712.677 192.727 707.966C188.669 705.208 184.658 702.284 180.592 699.637C174.669 695.78 168.703 691.977 163.014 687.789C157.195 683.508 151.436 679.131 146.363 673.922C144.874 672.392 142.902 671.374 141.31 669.884C135.139 664.108 128.682 658.624 122.717 652.647C116.136 646.051 109.758 639.223 103.707 632.141C98.8478 626.455 94.5842 620.257 90.09 614.263C84.2402 606.46 78.9848 598.272 73.6096 590.169C69.4071 583.834 65.8709 577.062 62.4395 570.258C60.6637 566.735 58.4609 563.404 56.9429 559.781C54.7862 554.631 51.6942 549.931 50.1329 544.459C49.5252 542.33 47.944 540.276 46.8567 538.144C43.5867 531.733 41.8403 524.778 39.2145 518.147C36.8804 512.255 35.5048 506.064 33.8653 499.99C32.5031 494.943 31.3571 489.758 30.5615 484.519C30.1989 482.129 29.1577 479.648 28.448 477.198C26.5275 470.567 25.7152 463.745 24.8121 456.931C24.1207 451.714 23.1666 446.53 22.4813 441.311C21.4356 433.346 20.5651 425.36 21.154 417.303C21.2149 416.471 20.8579 415.405 22.3017 414.723C22.7186 418.937 23.1227 423.024 23.5801 427.645C25.2733 425.857 24.7112 424.334 24.531 422.904C24.3941 421.814 24.012 420.749 23.9383 419.659C23.8984 419.065 23.4609 417.953 24.643 417.959C25.4946 417.963 25.7225 418.826 25.7696 419.61C26.0978 425.072 26.1971 430.56 26.8147 435.989C27.5122 442.12 27.8654 448.315 29.5381 454.319C30.1989 456.691 30.439 459.197 30.7273 461.625C31.8034 470.674 34.6926 479.295 36.6414 488.133C37.8706 493.709 39.3952 499.234 41.0846 504.69C43.3134 511.888 45.9658 518.956 48.1907 526.156C50.3901 533.274 53.6951 539.921 56.5443 546.76C58.5824 551.653 60.8722 556.442 62.8471 561.359C63.7962 563.722 65.8216 565.233 66.9299 567.489C69.758 573.244 72.4187 579.171 76.0103 584.44C80.8566 591.55 84.7902 599.213 90.0767 606.078C94.7389 612.132 99.3379 618.24 104.331 624.014C106.975 627.073 109.215 630.386 111.673 633.494C113.018 635.195 115.336 636.722 117.009 638.567C121.07 643.045 125.007 647.645 129.249 651.944C132.2 654.934 135.56 657.522 138.762 660.26C142.158 663.164 145.579 666.038 148.996 668.917C149.487 669.331 149.998 669.725 150.527 670.088C151.475 670.739 152.635 671.408 153.394 670.127C154.116 668.909 152.573 668.76 151.975 668.228C147.746 664.46 143.451 660.766 139.245 656.974C136.995 654.945 134.568 653.144 132.328 651.087C126.108 645.376 120.628 639.031 115.282 632.534C112.049 628.607 108.564 624.887 105.358 620.938C101.579 616.282 98.066 611.411 94.3869 606.681C91.7439 603.283 89.2035 599.839 86.9237 596.211C81.5684 587.687 75.9809 579.292 71.5122 570.248C69.6232 566.424 68.4052 562.214 66.1497 558.641C62.1845 552.363 59.7794 545.387 56.5021 538.811C54.229 534.249 52.5846 529.404 51.3487 524.408C50.7988 522.184 49.406 520.137 48.4391 518.01C46.6921 514.164 46.0013 510.105 44.822 506.155C42.7978 499.374 40.391 492.649 39.0959 485.723C37.7774 478.669 35.3036 471.916 34.3089 464.802C33.622 459.89 33.5044 454.829 32.4033 450.084C31.2762 445.228 30.6946 440.364 30.0165 435.481C28.7446 426.318 27.4434 417.169 28.0594 407.853C28.3466 403.496 28.1193 399.103 28.081 394.727C28.0638 392.777 28.1947 390.873 29.1317 388.936C29.7266 389.768 29.7837 390.627 29.7371 391.514C29.3795 398.238 30.4273 404.92 29.8829 411.701C29.4621 416.94 30.7855 422.282 30.9269 427.631C31.0733 433.157 31.6887 438.708 32.9861 444.105C35.0286 452.596 35.563 461.328 37.5773 469.857C39.2677 477.017 41.6047 484.003 43.049 491.174C43.8812 495.31 44.9406 499.413 46.1981 503.347C47.5764 507.655 49.0972 512.014 50.9246 516.174C52.8596 520.581 53.6895 525.264 55.1843 529.768C55.3811 530.36 55.421 530.992 55.813 531.533C58.426 535.14 59.2094 539.656 61.405 543.375C64.67 548.904 66.4347 555.108 70.0042 560.509C72.7486 564.663 74.4074 569.519 76.7693 573.946C78.9748 578.08 81.3927 582.127 83.9109 586.059C90.3683 596.145 97.7289 605.585 105.153 614.993C109.086 619.976 112.689 625.34 116.893 630.04C123.236 637.132 129.31 644.47 136.042 651.27C142.207 657.499 149.375 662.349 155.816 668.137C158.66 670.693 161.756 673.268 165.251 675.143C167.286 676.234 169.011 677.757 170.69 679.364C174.655 683.163 179.756 685.375 184.055 688.743C189.856 693.289 196.433 696.687 202.515 700.825C203.242 701.32 204.248 701.614 204.414 702.708C203.128 704.021 201.85 703.251 200.637 702.623C196.789 700.631 193.088 698.326 189.658 695.736C186.921 693.669 183.928 692.084 181.062 690.301C175.123 686.606 169.802 682.053 163.876 678.359C162.63 677.582 161.465 676.678 160.181 675.945C158.74 675.122 157.348 674.209 156.589 672.662C156.48 672.579 156.399 672.448 156.381 672.301C156.401 672.314 156.236 672.425 156.238 672.423C156.541 672.492 156.65 672.755 156.811 672.989C158.839 675.72 161.741 677.489 164.405 679.349C170.209 683.403 175.891 687.635 181.82 691.535C188.515 695.94 195.466 699.913 202.149 704.312C210.877 710.059 220.338 714.346 229.699 718.875C239.913 723.816 250.539 727.769 260.992 732.122C270.994 736.285 281.098 740.218 291.524 743.35C298.464 745.434 305.303 747.994 312.185 750.33C317.567 752.156 323.174 753.393 328.696 754.833C335.811 756.69 342.972 758.39 350.108 760.123C363.594 763.4 377.242 766.018 391.064 767.617C396.546 768.252 401.986 769.295 407.401 770.356C411.906 771.238 416.509 771.637 420.935 772.841C428.713 774.956 436.755 774.783 444.653 775.837C455.519 777.288 466.496 777.431 477.405 778.276C488.533 779.138 499.68 779.039 510.796 779.87C515.002 780.183 519.204 779.146 523.469 779.266C527.405 779.376 531.377 779.469 534.341 779.159C522.354 778.905 509.385 779.821 496.426 778.751C494.218 778.569 491.994 778.643 489.78 778.7C483.769 778.857 477.821 777.976 471.84 777.696C464.314 777.344 456.774 777.114 449.281 776.375C441.048 775.563 432.68 775.364 424.62 773.714C414.093 771.56 403.488 769.899 392.949 767.857C388.254 766.948 383.478 766.429 378.791 765.503C368.88 763.545 358.861 762.321 349.053 759.587C336.03 755.957 322.746 753.227 309.815 749.23C296.269 745.042 282.809 740.561 269.642 735.276C265.458 733.597 261.293 731.844 257.241 729.825C253.615 728.019 249.538 727.37 245.84 725.649C237.239 721.646 228.311 718.395 219.9 713.922C215.512 711.589 211.046 709.393 206.811 706.788C205.385 705.911 203.67 704.923 204.359 702.66C209.897 703.983 214.518 707.311 219.607 709.616C225.116 712.112 230.77 714.311 236.178 717.006C242.336 720.076 248.752 722.529 254.988 725.401C260.333 727.863 265.989 729.539 271.34 732.028C280.846 736.448 291.044 738.978 300.994 742.142C312.35 745.753 323.853 748.911 335.341 752.092C343.721 754.412 352.109 756.821 360.632 758.471C365.436 759.401 370.161 760.723 375.061 761.403C380.847 762.205 386.653 763.318 392.411 764.49C398.989 765.83 405.708 766.263 412.273 767.54C417.5 768.557 422.792 769.029 428.029 769.948C434.16 771.024 440.488 770.927 446.687 771.691C453.586 772.542 460.527 772.62 467.436 773.243C472.719 773.718 478.07 773.593 483.316 774.293C490.331 775.228 497.383 774.865 504.381 774.965C509.639 775.039 514.913 775.424 520.171 775.503C526.809 775.603 533.465 774.917 540.162 775.935C542.86 776.345 546.058 775.652 549.035 775.508C561.246 774.919 573.454 774.25 585.663 773.675C586.322 773.644 587.154 773.403 587.803 774.038C587.564 775.156 586.611 775.408 585.735 775.469C577.956 776.006 570.179 776.546 562.394 776.965C556.62 777.276 550.836 777.433 545.055 777.606C543.639 777.647 542.217 777.472 540.796 777.416C540.32 777.397 539.861 777.508 539.657 778.007C539.408 778.614 540.024 778.75 540.286 779.078C541.273 780.311 542.261 781.079 544.05 780.271C545.826 779.468 547.889 779.996 549.739 780.067C562.815 780.568 575.749 778.867 588.74 777.969C592.504 777.709 596.358 777.954 600.017 777.213C603.732 776.461 607.33 777.334 610.956 777.014C617.049 776.476 623.125 775.716 629.213 775.123C636.931 774.37 644.587 773.129 652.333 772.651C659.141 772.231 666.06 772.093 672.675 770.662C678.108 769.487 683.658 768.881 689.042 767.355C693.266 766.157 697.685 765.586 701.999 764.709C707.149 763.662 712.411 763.027 717.39 761.12C720.123 760.073 723.111 759.781 725.961 759.034C736.429 756.295 746.907 753.541 757.497 751.36C765.048 749.805 772.317 747.477 779.613 745.107C784.026 743.673 788.6 742.725 793.08 741.473C794.206 741.157 795.204 740.37 796.335 740.043C804.291 737.737 812.031 734.841 819.604 731.503C823.895 729.612 828.22 727.78 832.417 725.7C834.818 724.512 837.368 723.762 839.769 722.626C848.329 718.581 856.607 713.992 865.078 709.793C869.786 707.463 874.032 704.441 878.618 701.948C884.228 698.901 889.152 694.609 894.707 691.458C900.895 687.952 906.589 683.785 912.227 679.561C919.806 673.885 926.836 667.487 934.437 661.847C939.377 658.181 943.818 653.968 948.598 650.143C952.257 647.217 954.868 643.171 958.572 640.216C962.098 637.4 963.85 632.852 968.03 630.547C968.956 630.038 969.3 628.244 970.331 627.267C976.241 621.643 981.037 615.094 985.855 608.558C987.214 606.716 988.755 605.013 990.202 603.235C990.695 602.63 991.206 602.138 992.07 602.423L992.021 602.376Z" fill="#DFD4BF"/>
<path d="M114.65 180.632C114.75 178.166 116.673 176.694 118.076 175.156C124.879 167.707 131.549 160.087 139.178 153.472C143.425 149.789 146.635 145.133 151.109 141.699C158.705 135.875 165.813 129.326 173.796 124.12C186.282 115.983 198.103 106.841 211.104 99.4761C221.644 93.5043 232.422 87.9561 243.483 83.0999C251.117 79.7489 258.796 76.3968 266.658 73.5205C270.688 72.0446 274.409 69.6799 278.473 68.3305C286.673 65.6093 295.033 63.3933 303.283 60.8107C314.544 57.2829 325.887 54.0766 337.397 51.4292C349.057 48.7486 360.794 46.6052 372.637 44.9086C380.659 43.7582 388.615 42.1686 396.621 40.9228C400.624 40.3002 404.733 40.2935 408.691 39.499C414.735 38.2859 420.867 37.9128 426.96 37.3917C434.483 36.7463 441.902 35.0653 449.414 34.7648C461.878 34.2663 474.33 33.4158 486.794 32.9695C497.921 32.5709 509.049 31.2613 520.172 31.8041C528.601 32.2155 536.989 31.4459 545.426 31.8291C552.082 32.1318 558.842 31.6749 565.559 31.6849C567.142 31.6871 568.624 32.2998 570.117 32.4517C573.769 32.8232 577.47 32.6901 581.15 32.8143C590.869 33.142 600.644 32.6541 610.292 33.9509C615.718 34.68 621.19 34.0252 626.565 35.1107C628.319 35.465 630.087 35.144 631.851 36.2185C632.922 36.8699 634.751 36.0084 636.292 35.9845C641.969 35.8953 647.431 37.4111 653.036 37.6473C661.016 37.9843 668.908 39.2662 676.747 40.5763C683.776 41.7511 690.856 42.6804 697.887 43.8264C702.632 44.5998 707.403 45.5113 712.173 46.2248C719.241 47.2821 726.149 49.3939 733.141 50.9868C740.639 52.6956 748.142 54.3932 755.669 55.9689C764.715 57.8623 773.742 59.7523 782.592 62.509C787.653 64.0852 792.891 65.1691 797.885 66.9693C805.13 69.5824 812.281 72.461 819.453 75.2747C823.865 77.0056 828.119 79.2023 832.45 80.9787C839.589 83.9066 846.682 86.8878 853.588 90.3114C860.841 93.908 868.224 97.275 874.931 101.89C879.127 104.778 883.414 107.532 887.921 109.913C896.617 114.506 904.178 120.723 911.974 126.604C916.643 130.126 921.447 133.492 925.885 137.285C928.167 139.235 931.285 140.428 932.42 143.649C932.72 144.5 933.931 144.41 934.689 144.887C940.197 148.357 944.023 153.547 948.17 158.299C956.184 167.483 964.503 176.378 972.681 185.406C975.077 188.051 977 191.125 979.148 193.996C979.534 194.513 979.94 195.019 980.382 195.488C981.039 196.185 981.829 195.859 982.393 195.461C983.215 194.881 982.431 194.404 982.097 193.897C977.983 187.649 973.152 182.012 968.136 176.456C961.549 169.16 954.423 162.342 948.41 154.517C946.92 152.577 944.146 151.602 944.075 148.59C954.01 154.259 995.264 204.461 994.708 210.379C993.63 209.795 993.163 208.797 992.607 207.896C990.216 204.018 987.148 200.644 984.439 197.004C983.922 196.307 983.259 195.376 982.177 196.215C980.916 197.191 981.899 198.021 982.503 198.76C988.803 206.46 993.982 214.879 998.83 223.546C1003.17 231.305 1008.05 238.769 1012.24 246.603C1014.86 251.483 1016.51 256.867 1018.83 261.918C1021.21 267.102 1022.92 272.554 1024.75 277.903C1026.6 283.303 1028.74 288.589 1030.57 293.983C1033.02 301.207 1035.85 308.437 1037.09 315.901C1038.38 323.701 1041.18 331.075 1042.37 338.842C1043.94 349.075 1045.77 359.279 1046.92 369.559C1047.54 375.085 1048.07 380.675 1047.58 386.346C1047.31 389.378 1048.63 392.536 1048.07 395.754C1047.44 399.423 1048.57 403.068 1048.21 406.847C1047.91 409.898 1048.08 413.169 1047.99 416.337C1047.88 420.316 1047.69 424.299 1047.36 428.266C1046.87 434.085 1045.65 439.803 1044.84 445.575C1044.57 447.449 1043.62 448.98 1043.34 450.804C1042.34 457.332 1041.43 463.875 1040.38 470.39C1039.56 475.501 1038.96 480.749 1036.67 485.558C1036.24 486.472 1036.67 487.766 1036.33 488.765C1035.05 492.637 1033.33 496.386 1032.34 500.325C1031.51 503.66 1030.34 506.921 1029.27 510.118C1026.46 518.544 1024.2 527.183 1020.15 535.209C1018.35 538.777 1016.91 542.602 1015.34 546.322C1015.17 546.716 1015.21 547.27 1014.56 547.426C1013.75 545.762 1014.07 544.342 1014.84 542.607C1017.1 537.486 1018.82 532.117 1021.12 527.015C1023.55 521.637 1024.37 515.704 1026.92 510.447C1028.99 506.158 1030.1 501.587 1031.41 497.129C1032.59 493.102 1032.7 488.666 1034.06 484.665C1036.55 477.31 1037.08 469.592 1038.89 462.143C1040.92 453.786 1042.08 445.316 1042.88 436.825C1043.52 430.09 1044.56 423.364 1044.49 416.555C1044.47 414.09 1045.2 411.601 1045.05 409.159C1044.76 404.727 1045.38 400.312 1045.06 395.909C1044.79 392.309 1045.4 388.684 1045.04 385.18C1044.59 380.836 1044.67 376.467 1044.03 372.125C1043.34 367.457 1043.62 362.574 1042.8 358.004C1042.02 353.644 1041.4 349.207 1040.4 344.86C1039.44 340.678 1038.49 336.471 1037.94 332.223C1037.26 327.081 1035.67 322.212 1034.29 317.267C1032.84 312.11 1032.19 306.753 1030.48 301.658C1028.99 297.181 1027.54 292.684 1025.9 288.26C1023.26 281.149 1020.4 274.104 1017.7 267.035C1015.06 260.119 1011.64 253.622 1008.65 246.911C1005.06 238.826 1000.43 231.225 996.251 223.415C992.188 215.823 987.365 208.83 981.872 202.221C979.338 199.17 977.607 195.443 975.024 192.443C972.51 189.524 969.508 186.979 967.329 183.785C961.767 175.634 954.928 168.559 948.068 161.599C941.324 154.757 934.842 147.613 927.485 141.373C923.473 137.97 919.795 134.152 915.641 130.94C910.662 127.089 905.346 123.669 900.156 120.092C896.939 117.875 893.862 115.355 890.397 113.623C886.879 111.865 883.679 109.695 880.4 107.598C875.523 104.48 870.359 101.87 865.221 99.2188C860.983 97.0322 856.572 95.1382 852.507 92.6699C848.822 90.4322 845.027 88.4696 841.147 86.635C834.007 83.2601 826.829 79.9641 819.427 77.1986C815.645 75.7853 812.105 73.8304 808.2 72.665C800.395 70.3358 792.697 67.6713 784.851 65.4352C775.152 62.6714 765.256 60.696 755.603 57.8307C748.485 55.7183 741.209 54.3805 733.956 53.0876C727.732 51.9781 721.606 50.398 715.344 49.3989C709.585 48.4802 703.769 47.8288 698.051 46.7438C689.515 45.1237 680.852 44.4884 672.336 42.987C666.26 41.9158 660.116 41.4712 654.059 40.2625C644.771 38.4096 635.2 38.7855 625.865 37.441C618.388 36.3643 610.906 36.6997 603.447 36.0322C597.426 35.4939 591.334 35.7799 585.303 35.3203C577.974 34.762 570.618 35.2504 563.323 34.6683C557.839 34.2308 552.336 34.2181 546.85 33.7496C544.044 33.5101 541.019 33.9936 538.095 33.9742C533.528 33.9442 528.958 34.4465 524.423 34.3345C519.409 34.2114 514.382 35.2139 509.472 34.6129C503.144 33.8378 496.996 34.879 490.791 35.2981C484.421 35.7284 478.05 36.0782 471.675 36.3992C463.43 36.8139 455.236 38.0974 446.991 38.4739C437.122 38.9241 427.298 40.0219 417.568 41.3359C405.725 42.9348 393.86 44.5294 382.04 46.3407C374.256 47.5333 366.499 48.9055 358.732 50.1995C354.429 50.9169 350.155 51.8517 345.875 52.7039C337.602 54.35 329.524 56.6686 321.352 58.6579C308.955 61.6773 296.575 64.7533 284.471 68.8067C276.715 71.4059 269.069 74.3765 261.474 77.4181C254.272 80.3 246.892 82.7739 240.006 86.3832C233.78 89.6444 227.72 93.2171 221.477 96.4406C211.459 101.617 201.751 107.275 192.42 113.632C188.899 116.031 185.761 118.9 182.196 121.195C177.699 124.09 172.998 126.731 169.006 130.292C165.619 133.314 161.76 135.687 158.405 138.794C155.506 141.481 152.179 143.783 149.18 146.456C144.733 150.419 140.603 154.697 136.339 158.836C131.948 163.098 127.352 167.156 123.371 171.834C121.297 174.272 119.102 176.604 116.962 178.989C116.308 179.721 115.82 180.697 114.6 180.587L114.65 180.632Z" fill="#DFD4BF"/>
<path d="M116.831 161.815C118.028 162.102 118.743 161.366 119.392 160.558C124.859 153.799 131.168 147.828 137.511 141.961C144.791 135.226 152.081 128.464 159.899 122.321C167.35 116.467 174.702 110.458 182.691 105.359C193.087 98.7238 203.876 92.7748 215.015 87.4445C222.987 83.6317 230.76 79.4225 238.678 75.496C243.701 73.0028 248.718 70.4407 253.924 68.3722C265.523 63.7626 277.439 60.0496 289.334 56.2623C300.401 52.7384 311.627 49.847 322.811 46.7838C333.167 43.9479 343.689 41.8239 354.18 39.5402C373.795 35.2711 393.625 32.3808 413.453 29.4435C425.358 27.6798 437.334 26.4878 449.336 25.5641C455.74 25.0718 462.116 24.1825 468.523 23.7783C479.98 23.0559 491.45 22.5419 502.916 21.9847C509.914 21.6449 516.912 21.2706 523.915 21.1176C537.434 20.8221 550.96 20.3497 564.471 20.5942C571.471 20.7212 578.508 20.9557 585.523 21.5273C591.113 21.9831 596.817 21.483 602.378 22.3041C607.843 23.1113 613.364 22.5791 618.774 23.4324C622.113 23.9585 625.622 24.386 628.8 24.3206C632.497 24.2452 635.892 25.4111 639.496 25.4167C642.858 25.4222 646.224 26.2056 649.579 26.7074C654.663 27.4675 659.871 26.9718 664.901 28.1844C671.877 29.866 679.066 30.0046 686.116 31.2642C696.866 33.1853 707.523 35.515 718.233 37.6008C725.518 39.0196 732.715 40.781 739.933 42.4576C746.915 44.0793 753.804 46.0996 760.76 47.8411C767.568 49.546 774.423 51.0646 781.231 52.7683C787.56 54.3529 793.931 55.7922 800.044 58.1585C802.004 58.9169 804.081 59.3816 806.118 59.9271C806.689 60.0796 807.494 60.3402 807.65 59.4065C807.773 58.6708 807.052 58.6397 806.537 58.4728C802.78 57.2586 798.886 56.3461 795.311 54.7288C791.187 52.8631 786.695 52.4601 782.554 50.8289C806.802 55.8038 829.131 66.0691 851.509 76.1874C847.076 74.3905 842.628 72.6263 838.211 70.7895C829.685 67.2439 821.195 63.6107 812.636 60.1472C811.571 59.717 809.368 58.9136 809.156 59.8778C808.821 61.4047 811.006 61.8083 812.222 62.3006C818.096 64.6775 824.101 66.7311 829.948 69.1672C837.29 72.2266 844.439 75.7649 851.834 78.6868C858.135 81.1767 864.24 84.011 870.108 87.3547C874.957 90.1174 879.509 93.4762 884.542 95.8214C890.728 98.705 896.06 102.822 901.644 106.551C907.309 110.335 912.708 114.564 917.89 119.416C916.201 120.142 915.258 119.081 914.395 118.516C909.863 115.546 905.398 112.471 900.966 109.352C897.651 107.019 893.765 105.665 890.562 103.151C886.7 100.119 882.171 98.2981 877.827 96.1308C876.036 95.237 874.3 94.2413 872.654 93.0232C869.004 90.3204 864.873 88.3721 860.948 86.1134C857.8 84.302 854.069 83.9167 851.249 81.3115C848.237 78.5299 843.934 77.956 840.213 76.6753C834.926 74.8557 829.971 72.409 824.873 70.2384C816.967 66.8719 809.211 63.1234 801.184 60.0812C796.084 58.148 790.665 56.9055 785.287 55.8853C778.59 54.614 772.042 52.7644 765.394 51.3246C759.957 50.1475 754.578 48.6262 749.253 47.1292C742.912 45.3473 736.347 44.7197 730.034 42.7076C727.394 41.866 724.207 41.1547 721.074 41.2584C718.546 41.3415 716.193 39.844 713.617 39.4154C706.498 38.2328 699.467 36.4969 692.337 35.4041C686.012 34.4345 679.598 34.0569 673.227 33.3766C665.273 32.5272 657.445 30.5718 649.443 30.2934C645.928 30.1709 642.531 29.3653 639.154 28.8003C637.41 28.5087 635.793 28.7443 634.137 28.557C625.571 27.5884 616.98 27.0073 608.36 26.8294C607.453 26.8105 606.552 26.5239 605.648 26.3647C603.709 26.0243 601.946 25.5043 599.787 26.2616C597.363 27.1121 594.889 25.1905 592.283 25.0646C586.553 24.7879 580.8 23.9236 575.111 24.58C573.256 24.794 571.324 24.9055 569.447 25.2082C568.145 25.4183 567.756 23.6713 565.934 24.0079C563.128 24.5257 560.128 26.1674 557.175 24.289C545.755 26.3963 534.226 24.8301 522.759 25.3285C515.19 25.6573 507.617 25.2015 500.045 25.7853C492.556 26.3631 485.029 26.9685 477.534 26.8293C468.851 26.668 460.286 28.104 451.578 27.8828C444.511 27.7026 437.406 29.3415 430.304 30.0506C424.843 30.5961 419.47 31.8702 413.9 31.6313C411.481 31.5276 409.02 32.4047 406.577 32.8349C399.178 34.1367 391.702 35.1657 384.382 36.7093C376.757 38.3171 369.073 39.7154 361.404 40.6707C355.818 41.3659 350.432 43.5548 344.672 43.0492C343.432 42.9405 342.828 44.5228 341.433 44.8278C334.535 46.3364 327.637 47.9032 320.838 49.8021C315.53 51.2847 310.407 53.4198 305.128 55.0165C299.765 56.6388 294.427 58.3131 288.875 59.3738C285.095 60.0962 281.251 61.1685 277.749 63.1494C275.527 64.4069 273.022 65.3128 270.533 65.9205C261.897 68.0273 254.13 72.2643 245.946 75.4783C237.181 78.9202 229.08 83.5613 220.77 87.862C214.166 91.2784 207.674 94.8672 201.337 98.7288C199.468 99.8682 197.323 99.4413 195.532 100.705C187.049 106.683 178.289 112.234 169.939 118.434C162.688 123.821 155.746 129.6 148.932 135.438C142.723 140.756 136.696 146.449 131.202 152.623C127.115 157.214 122.685 161.502 118.366 165.883C116.759 167.516 115.744 169.568 114.269 171.327C110.521 175.801 106.618 180.138 102.898 184.614C98.285 190.168 94.5537 196.448 90.3013 202.311C88.3663 204.974 86.4702 207.718 83.942 209.88C82.2011 211.371 81.436 213.453 80.3382 215.326C76.9562 221.074 72.7092 226.273 69.7375 232.277C65.5904 240.652 61.3933 249.002 57.224 257.364C54.4463 262.936 52.151 268.761 50.338 274.654C48.1758 281.675 46.2906 288.837 43.7791 295.703C41.9439 300.708 40.7574 305.867 38.9888 310.868C36.2111 318.72 34.7087 326.921 33.0121 335.067C31.0938 344.301 30.9108 353.799 28.9647 362.952C28.0444 367.287 27.4844 371.656 27.6009 375.836C27.6951 379.331 25.4331 381.937 25.7269 385.374C25.8877 387.277 25.8988 389.345 25.8655 391.333C25.7934 395.768 25.5328 400.201 25.2556 404.63C25.117 406.907 25.239 409.155 25.5218 411.406C25.6715 412.591 25.9819 413.777 25.4663 414.953C25.1946 415.567 25.3721 416.673 24.2798 416.434C23.6589 416.297 23.5369 415.509 23.5203 414.814C23.2985 404.877 23.5036 394.946 24.0137 385.02C24.5237 375.152 26.0706 365.406 27.7727 355.696C29.0368 348.468 30.0292 341.187 31.3765 333.992C32.5075 327.929 34.0544 321.883 35.4017 315.845C36.8487 309.329 39.2051 303.113 40.7464 296.64C42.0548 291.173 43.7458 285.751 45.7251 280.423C47.5326 275.549 48.8022 270.439 50.9756 265.708C54.8288 257.299 58.1166 248.631 62.6796 240.543C66.6825 233.458 70.2254 226.109 74.4002 219.135C78.5972 212.132 83.1269 205.355 88.6712 199.226C91.3768 196.231 93.5336 192.596 96.0562 189.34C101.057 182.875 106.147 176.479 111.248 170.088C112.617 168.366 114.236 166.836 115.567 165.085C116.276 164.155 117.629 163.33 116.881 161.767L116.831 161.815Z" fill="#DFD4BF"/>
<path d="M591.519 774.538C593.814 773.174 596.35 773.413 598.698 773.288C603.99 773.006 609.263 772.629 614.513 771.955C623.664 770.781 632.766 769.159 642.012 768.87C648.549 768.666 655.002 767.687 661.45 766.763C670.998 765.394 680.557 764.03 689.988 761.978C694.212 761.059 698.412 760.039 702.656 759.197C708.396 758.06 714.039 756.171 719.823 755.58C726.533 754.895 732.435 751.619 738.952 750.603C746.158 749.479 753.094 747.293 760.153 745.598C768.254 743.653 776.176 741.145 784.069 738.441C789.683 736.518 795.36 734.673 801.051 732.925C804.881 731.749 808.638 730.285 812.269 728.523C814.416 727.482 816.654 726.576 818.931 725.869C821.659 725.022 824.11 723.251 826.809 722.753C831.463 721.893 834.813 718.524 839.292 717.212C843.205 716.064 846.99 713.903 850.739 711.995C855.212 709.722 859.876 707.767 864.137 705.153C868.241 702.634 872.362 700.141 876.546 697.77C883.923 693.59 890.607 688.368 897.789 683.92C903.968 680.094 909.929 675.943 915.622 671.504C920.16 667.966 924.369 663.893 929.042 660.554C938.196 654.014 945.323 645.301 953.899 638.146C956.567 635.92 959.934 634.217 961.808 631.141C966.748 623.037 974.526 617.304 979.71 609.397C981.792 606.219 984.647 603.464 986.743 600.395C989.76 595.977 992.768 591.492 995.852 587.119C1000.62 580.364 1004.15 572.976 1008.12 565.804C1010.41 561.67 1013.17 557.8 1015.47 553.67C1017.05 550.818 1018.27 547.752 1019.53 544.733C1023.12 536.166 1026.71 527.596 1030.17 518.978C1031.09 516.707 1031.27 514.126 1032.29 511.918C1035.55 504.84 1036.71 497.131 1039.15 489.81C1041.17 483.778 1042.69 477.56 1044.08 471.346C1045.01 467.215 1045.1 462.898 1046 458.757C1046.78 455.153 1046.6 451.364 1048.24 447.902C1048.7 446.942 1048.21 445.561 1048.26 444.375C1048.46 439.052 1049.74 433.856 1050.41 428.592C1051.23 422.136 1050.69 415.737 1051.1 409.329C1051.32 405.886 1051.63 402.431 1051.54 398.992C1051.42 394.453 1051.15 389.895 1050.55 385.398C1050.11 382.099 1049.85 378.639 1050.27 375.56C1051.14 369.111 1048.62 363.406 1047.76 357.362C1046.81 350.658 1045.82 343.958 1044.99 337.238C1044.66 334.624 1043.42 332.212 1043.47 329.492C1045.08 329.38 1045.59 330.392 1045.62 331.705C1045.8 338.354 1048.55 344.544 1049.09 351.112C1049.58 357.131 1051.35 362.919 1051.56 369.057C1051.69 372.828 1052.1 376.807 1052.28 380.621C1052.62 387.693 1054.69 394.592 1053.85 401.79C1052.92 409.804 1052.44 417.878 1051.99 425.939C1051.59 433.243 1050.52 440.474 1049.89 447.753C1049.17 456.214 1047.44 464.62 1044.96 472.724C1043.19 478.533 1042.09 484.472 1040.39 490.273C1038.41 497.07 1036.22 503.804 1034.25 510.605C1032.1 518.009 1029.24 525.167 1026.39 532.289C1024.6 536.753 1022.56 541.206 1020.81 545.676C1019.25 549.638 1017.27 553.42 1015.54 557.243C1013.64 561.426 1011.54 565.658 1008.97 569.591C1007.04 572.56 1005.75 575.946 1003.98 579.037C999.973 586.048 995.508 592.809 990.347 598.989C984.122 606.443 978.556 614.425 972.034 621.622C968.852 625.134 965.351 628.357 962.155 631.856C959.739 634.502 957.414 637.24 954.682 639.554C949.045 644.328 944.838 650.566 938.898 655.001C931.996 660.154 925.497 665.828 918.312 670.624C915.029 672.814 912.354 675.934 909.023 678.026C902.462 682.144 896.809 687.489 889.941 691.257C885.782 693.539 881.733 696.329 877.672 698.864C868.499 704.59 859.472 710.739 849.349 714.765C844.093 716.857 839.614 720.37 834.226 722.214C823.155 726.003 812.968 731.949 801.583 735.143C794.853 737.032 788.413 740.062 781.565 741.809C773.961 743.749 766.652 746.781 758.922 748.238C752.485 749.452 746.233 751.571 739.605 751.93C737.59 752.039 735.686 753.509 733.645 753.91C725.69 755.472 717.988 758.012 710.122 759.921C703.521 761.521 696.87 762.782 690.271 764.283C682.819 765.978 675.253 766.901 667.798 768.503C662.335 769.677 656.653 769.576 651.099 770.218C646.004 770.807 640.898 770.29 635.738 771.822C630.75 773.303 625.193 772.921 619.895 773.357C615.845 773.691 611.749 773.769 607.707 774.418C602.335 775.279 596.918 774.544 591.519 774.538Z" fill="#DFD4BF"/>
<path d="M116.866 161.771C114.564 161.955 113.526 163.848 112.312 165.344C105.145 174.173 98.3831 183.325 91.2731 192.192C86.561 198.068 82.3013 204.265 77.7434 210.241C74.327 214.72 71.8947 219.96 69.1109 224.91C65.0181 232.189 60.4873 239.286 57.1458 246.9C55.0899 251.584 52.463 256.029 50.8652 260.948C49.4664 265.257 47.4405 269.358 45.8859 273.622C43.0605 281.372 41.0906 289.378 38.8507 297.309C35.9072 307.731 32.8773 318.143 30.7971 328.748C29.2818 336.472 27.8724 344.252 27.1256 352.146C26.4348 359.446 24.613 366.634 23.7514 373.926C23.0567 379.803 22.1962 385.701 22.4728 391.668C22.5216 392.71 22.1607 393.77 21.7765 394.795C20.8689 387.664 21.3911 380.577 22.3198 373.53C22.8848 369.236 22.4518 364.912 23.1559 360.626C24.1794 354.393 24.7837 348.121 26.2524 341.927C27.2465 337.736 28.1702 333.434 28.683 329.123C29.3467 323.548 31.3554 318.29 32.2386 312.787C33.593 304.356 36.4179 296.317 38.6461 288.121C39.1928 286.109 40.137 284.256 41.2702 282.421C42.292 280.766 41.6922 278.443 42.6131 276.42C44.9833 271.214 46.916 265.802 49.0139 260.487C50.8696 255.788 52.7203 251.086 54.907 246.549C59.8824 236.224 65.4578 226.224 71.6868 216.588C75.2229 211.117 78.3732 205.394 82.0019 199.989C86.7828 192.867 91.8508 185.974 97.5309 179.479C102.784 173.473 107.562 167.027 112.939 161.11C122.911 150.139 132.636 138.942 144.036 129.337C156.142 119.135 168.474 109.209 182.25 101.397C190.294 96.835 198.008 91.7459 206.035 87.1558C212.988 83.1794 220.146 79.6593 227.257 76.0483C232.144 73.5667 237.252 71.3767 242.31 69.3325C247.93 67.061 253.505 64.6121 259.199 62.4942C260.207 62.1188 261.1 61.9841 262.108 62.8956C260.092 64.7008 257.727 65.6494 255.39 66.1523C250.422 67.2207 246.226 69.9097 241.761 72.0254C234.133 75.6397 226.538 79.3267 218.984 83.0934C212.254 86.45 205.372 89.583 198.97 93.4929C191.692 97.9383 184.05 101.782 177.085 106.753C166.748 114.132 156.89 122.072 147.391 130.521C139.642 137.412 132.266 144.679 124.694 151.743C122.001 154.255 119.487 156.997 117.317 160.011C116.925 160.555 116.679 161.132 116.815 161.819C116.815 161.819 116.866 161.771 116.866 161.771Z" fill="#DFD4BF"/>
<path d="M979.039 594.41C992.866 573.668 1005.06 552.216 1014.27 528.88C1023.46 505.598 1030.14 481.784 1035.55 457.46C1033.86 464.103 1034.36 471.105 1031.58 477.589C1030.04 481.162 1029.93 485.333 1029.01 489.214C1026.83 498.366 1024.85 507.528 1020.87 516.155C1019.17 519.851 1018.36 523.953 1016.94 527.792C1016.09 530.059 1014.74 532.132 1013.81 534.37C1013.23 535.76 1013.19 537.384 1012.57 538.751C1009.79 544.948 1007.19 551.214 1003.95 557.223C999.704 565.096 994.819 572.508 989.806 579.887C986.772 584.352 984.195 589.131 980.816 593.377C980.439 593.85 980.044 594.309 979.657 594.774C979.451 594.652 979.245 594.531 979.039 594.41Z" fill="#DFD4BF"/>
<path d="M1035.89 455.032C1035.43 452.489 1035.73 450.04 1036.13 447.587C1036.55 445.058 1036.53 442.322 1037.26 440.005C1039.02 434.356 1037.83 428.454 1039.42 422.787C1040 420.727 1039.08 418.103 1039.35 415.644C1039.87 410.813 1040.64 405.984 1040.35 401.085C1040.02 395.336 1039.51 389.583 1039.52 383.831C1039.54 372.883 1038.32 362.049 1036.87 351.242C1035.8 343.313 1033.5 335.619 1031.63 327.846C1031.46 327.147 1030.94 326.479 1031.26 325.718C1031.39 325.407 1031.66 325.053 1031.95 324.933C1032.51 324.705 1032.71 325.109 1032.87 325.613C1033.41 327.363 1034.2 329.061 1034.54 330.845C1035.82 337.593 1037.15 344.341 1038.07 351.142C1038.52 354.463 1039.18 357.752 1038.89 361.276C1038.65 364.208 1039.51 367.451 1040.09 370.482C1041.62 378.497 1041.18 386.517 1041.17 394.571C1041.16 400.507 1041.12 406.457 1041.25 412.398C1041.32 415.795 1040.89 419.409 1040.62 422.888C1040.24 427.898 1039.93 432.932 1039.35 437.918C1038.67 443.702 1038.3 449.587 1035.89 455.032Z" fill="#DFD4BF"/>
<path d="M939.465 144.899C938.049 143.887 936.483 143.09 935.334 141.894C928.511 134.793 920.098 129.746 912.354 123.834C904.543 117.872 896.591 112.136 888.172 107.052C887.656 106.741 885.914 106.524 886.759 105.299C887.399 104.372 888.285 105.504 888.851 105.932C893.446 109.407 898.496 112.253 903.376 115.203C909.485 118.896 915.512 122.73 921.028 127.135C925.8 130.947 931.137 134.284 934.764 139.486C935.772 140.931 937.501 141.864 938.862 143.074C939.301 143.464 939.986 143.825 939.465 144.899Z" fill="#DFD4BF"/>
<path d="M1054.2 439.709C1054.5 435.614 1054.93 431.523 1055.07 427.422C1055.39 418.438 1055.58 409.45 1056.34 400.486C1056.4 399.853 1056.26 399.198 1056.17 398.559C1056.09 398.036 1055.28 397.439 1056.31 397.053C1057.09 396.759 1057.97 396.512 1058.63 397.208C1059.11 397.719 1059.11 398.603 1058.61 398.978C1057.5 399.799 1057.67 400.918 1057.67 401.971C1057.67 409.112 1056.92 416.222 1056.75 423.34C1056.68 426.161 1056.48 428.945 1056.14 431.716C1055.81 434.42 1055.14 437.083 1054.61 439.763L1054.2 439.709Z" fill="#DFD4BF"/>
<path d="M28.2954 447.411C27.207 445.185 28.8369 441.335 26.9308 437.911C25.6528 435.624 26.7413 432.722 25.0734 430.207C24.5644 429.441 24.8623 426.447 25.4633 424.642C27.1041 419.67 26.3405 414.644 26.4272 409.589C26.5734 400.483 24.4507 391.435 25.7937 382.341C26.8225 375.384 26.4218 368.192 28.2521 361.45C29.3026 357.57 28.7557 353.471 30.586 349.753C31.5228 347.847 30.6889 345.524 31.1275 343.373C32.5192 336.574 34.0842 329.817 35.5842 323.048C37.447 314.613 39.1852 306.107 41.5841 297.848C43.2736 292.02 44.7195 286.073 46.8368 280.332C51.1905 268.515 56.519 257.132 61.6742 245.667C65.3673 237.441 70.2246 229.841 74.887 222.152C80.6974 212.563 86.4104 202.909 92.9952 193.807C97.2569 187.919 101.99 182.43 106.825 177.026C112.695 170.471 118.381 163.732 124.538 157.457C133.841 147.978 143.053 138.41 153.13 129.696C160.408 123.4 168.763 118.61 176.085 112.463C181.521 107.897 188.155 105.266 193.581 100.745C194.853 99.6856 196.662 99.2985 198.124 98.4413C203.626 95.2263 208.96 91.706 214.608 88.778C218.008 87.0127 221.675 85.6871 225.14 83.9862C230.317 81.4465 235.391 78.6745 240.671 76.3774C247.153 73.555 253.759 70.9845 260.403 68.5515C268.737 65.499 277.261 62.9425 285.53 59.72C294.589 56.1866 304.195 54.8085 313.417 51.9834C318.93 50.295 324.686 49.5591 330.112 47.712C333.48 46.5672 337.412 47.2192 340.265 44.5138C347.051 44.3752 353.516 42.2503 360.177 41.2886C370.731 39.7658 381.177 37.5148 391.704 35.8025C397.59 34.8457 403.655 34.8267 409.444 33.5228C415.525 32.1533 421.638 31.2067 427.784 30.8861C438.263 30.3392 448.698 29.2297 459.143 28.3919C471.593 27.3934 484.075 27.1562 496.508 26.1826C501.44 25.7959 506.386 25.8457 511.326 25.255C518.378 24.4113 525.543 24.2646 532.652 24.6393C542.373 25.1521 552.094 24.9252 561.81 24.8738C565.563 24.8532 569.365 24.9306 573.161 24.6387C576.206 24.4048 579.811 25.007 582.994 25.7662C586.87 26.6911 590.68 25.8999 594.496 26.3764C602.315 27.3539 610.262 26.5373 618.029 27.4725C625.13 28.3275 632.276 28.9015 639.36 29.9905C644.405 30.7654 649.536 30.9863 654.631 31.4325C661.438 32.0287 668.159 33.3289 674.937 34.0681C680.443 34.6686 685.795 36.1448 691.473 36.083C694.772 36.0473 698.266 37.7644 701.771 38.4126C707.849 39.5363 713.796 41.5052 719.904 42.2844C725.277 42.9694 730.128 45.2021 735.338 46.2835C739.839 47.217 744.415 48.0439 748.772 49.4107C753.202 50.8002 757.781 51.4078 762.205 52.793C768.095 54.6379 774.266 55.5904 780.147 57.4559C785.215 59.0637 790.4 60.1814 795.469 61.7431C796.114 61.9424 796.427 62.4925 796.876 62.922C797.809 63.8133 798.707 64.8887 800.295 63.7066C801.137 63.0806 802.184 63.8236 803.117 64.1442C807.623 65.6929 811.489 68.714 816.143 69.8928C823.671 71.8 830.504 75.4536 837.393 78.7882C844.821 82.3833 852.748 84.8266 859.797 89.3737C866.911 93.9635 874.726 97.4536 882.017 101.792C885.4 103.805 888.084 106.971 891.406 109.119C899.77 114.527 907.247 121.117 915.15 127.108C918.283 129.485 921.59 132.087 924.586 134.894C930.164 140.12 935.301 145.78 940.939 150.929C943.679 153.431 946.562 155.804 949.083 158.513C951.45 161.056 953.312 164.062 955.594 166.694C966.024 178.731 975.867 191.204 984.507 204.608C989.218 211.917 994.24 219.028 998.845 226.4C1001.72 231 1004.16 235.88 1006.64 240.713C1008.15 243.657 1010.44 246.11 1011.6 249.278C1013.71 255.038 1017.59 259.938 1018.81 266.246C1019.95 272.175 1022.56 277.791 1025.18 283.338C1026.42 285.944 1026.91 289.073 1027.74 291.968C1029.09 296.677 1030.97 301.225 1032.22 305.921C1032.99 308.806 1033.82 311.729 1034.43 314.674C1034.69 315.935 1034.92 317.142 1035.81 318.123C1036.24 318.602 1036.56 319.111 1036.51 319.809C1036.13 325.473 1038.49 330.654 1039.32 336.093C1039.9 339.888 1040.37 343.742 1041.32 347.422C1041.98 349.938 1040.86 352.845 1043.12 355.098C1043.68 355.656 1042.74 357.233 1042.82 358.536C1043.19 364.932 1043.99 371.278 1044.58 377.648C1045.02 382.361 1045.01 387.114 1045.21 391.849C1045.47 398.161 1045.97 404.473 1045.93 410.782C1045.9 415.726 1045.33 420.679 1044.77 425.602C1044.6 427.041 1044.48 428.465 1044.52 429.89C1044.64 433.707 1043.44 437.309 1042.87 441.013C1041.82 447.836 1040.95 454.693 1040.23 461.56C1039.76 466.059 1037.85 470.213 1037.39 474.678C1036.68 481.546 1033.35 487.717 1032.21 494.434C1031.63 497.895 1029.62 501.068 1030.25 504.781C1030.43 505.843 1029.13 506.417 1028.76 507.485C1025.34 517.492 1021.88 527.485 1018.22 537.404C1015.03 546.034 1010.78 554.175 1006.51 562.321C1004.58 566.007 1002.77 569.851 1000.87 573.549C999.138 576.917 997.233 580.329 995.065 583.538C991.389 588.976 987.719 594.461 984.603 600.225C979.182 610.253 971.422 618.532 964.869 627.705C962.42 631.135 958.848 633.428 956.305 636.806C951.835 642.745 946.012 647.527 941.499 653.458C940.042 655.371 937.69 656.118 936.018 657.753C931.704 661.968 926.829 665.522 922.263 669.44C919.625 671.703 917.18 674.201 914.746 676.69C912.584 678.901 909.671 679.973 907.315 681.915C901.779 686.476 895.573 690.133 889.892 694.526C887.366 696.48 883.981 697.857 881.865 699.861C879.147 702.438 874.741 701.993 872.918 705.713C872.699 706.161 870.643 705.948 869.355 706.759C862.937 710.801 856.085 714.08 849.322 717.508C842.759 720.835 836.26 724.302 829.587 727.394C824.546 729.73 819.142 731.297 814.276 734.016C805.681 738.819 796.157 740.922 786.91 743.876C781.037 745.75 775.459 748.482 769.469 750.08C765.753 751.071 762.138 752.453 758.41 753.386C751.286 755.17 744.113 756.756 736.962 758.428C728.707 760.356 720.474 762.397 712.188 764.183C706.374 765.437 700.637 766.968 694.736 767.952C686.429 769.337 678.128 770.892 669.853 772.531C665.622 773.369 661.191 773.156 656.868 773.584C648.363 774.427 639.879 775.505 631.367 776.261C624.116 776.904 616.931 778.108 609.646 778.507C603.757 778.828 597.905 779.767 592.019 780.207C587.309 780.559 582.576 780.546 577.852 780.791C567.792 781.313 557.699 781.27 547.647 781.898C543.677 782.147 539.661 781.683 535.64 782.791C534.092 783.218 531.744 781.941 529.715 782.201C524.323 782.892 518.948 782.988 513.561 782.218C506.701 781.237 499.778 781.785 492.885 781.381C484.297 780.878 475.697 780.689 467.125 779.702C461.169 779.015 455.152 778.71 449.142 778.401C442.102 778.039 435.106 776.829 428.082 776.091C420.252 775.267 412.395 774.73 404.586 773.741C399.821 773.138 395.213 771.568 390.393 771.017C382.996 770.17 375.604 769.223 368.256 768.029C364.818 767.471 361.336 766.52 357.957 766.197C352.536 765.68 347.402 764.001 342.394 762.485C337.027 760.862 331.601 759.284 326.213 757.675C317.971 755.213 309.486 753.549 301.298 750.92C296.241 749.294 291.096 747.873 286.087 745.923C280.618 743.793 274.986 741.908 269.42 739.938C261.075 736.987 252.893 733.64 244.813 729.982C237.541 726.688 230.599 722.655 223.115 719.886C217.976 717.983 213.877 714.382 208.944 712.198C203.371 709.729 198.579 705.949 193.483 702.682C190.63 700.852 187.662 699.167 184.635 697.643C181.603 696.116 178.738 694.35 176.453 691.875C174.184 689.415 170.881 688.737 168.39 686.634C163.527 682.533 158.079 679.243 153.401 674.772C149.437 670.986 145.04 667.278 139.771 665.073C139.349 664.894 139.024 664.683 138.753 664.274C133.944 657.034 127.072 651.717 120.932 645.774C118.381 643.31 116.74 640.322 114.325 637.846C110.156 633.568 106.928 628.477 102.547 624.299C100.62 622.461 99.4012 619.621 97.7713 617.289C95.0475 613.396 92.2858 609.541 89.3183 605.831C85.5656 601.148 82.3815 596.058 79.4303 590.862C76.2516 585.265 73.2517 579.532 69.9322 574.044C66.3637 568.143 63.3474 561.96 59.8601 556.027C57.9377 552.763 57.1796 548.884 55.3547 545.48C50.5786 536.556 47.5786 526.913 44.0426 517.474C41.6382 511.07 39.7592 504.492 38.0047 497.974C35.6545 489.256 32.8116 480.598 32.2322 471.355C31.9344 466.577 30.2015 461.755 29.5463 456.866C29.1781 454.122 28.8207 451.377 28.2954 447.411Z" fill="#181818"/>
</svg>
