<svg width="925" height="688" viewBox="0 0 925 688" fill="none" xmlns="http://www.w3.org/2000/svg">
<mask id="path-1-inside-1_96_4077" fill="white">
<path d="M3.40205 383.517C2.41657 381.502 3.89233 378.016 2.16651 374.916C1.00942 372.845 1.99488 370.217 0.484784 367.941C0.0239105 367.247 0.293616 364.536 0.837839 362.902C2.32342 358.4 1.63207 353.85 1.71051 349.273C1.84289 341.028 -0.0790109 332.836 1.13691 324.603C2.06846 318.303 1.70561 311.791 3.36279 305.687C4.31396 302.174 3.81879 298.463 5.47598 295.097C6.32418 293.371 5.56913 291.268 5.96627 289.32C7.22632 283.164 8.64325 277.046 10.0014 270.917C11.688 263.281 13.2618 255.579 15.4338 248.101C16.9635 242.824 18.2726 237.44 20.1896 232.242C24.1316 221.543 28.956 211.236 33.6236 200.856C36.9674 193.408 41.3653 186.527 45.5867 179.565C50.8475 170.883 56.0201 162.142 61.982 153.902C65.8406 148.571 70.1258 143.6 74.5041 138.708C79.8188 132.772 84.9669 126.671 90.5415 120.989C98.9647 112.407 107.305 103.744 116.429 95.854C123.018 90.1539 130.584 85.8173 137.212 80.2515C142.135 76.1174 148.141 73.7355 153.054 69.6421C154.206 68.6826 155.843 68.3321 157.167 67.5559C162.149 64.6451 166.978 61.4577 172.092 58.8067C175.171 57.2083 178.49 56.0081 181.628 54.4681C186.315 52.1686 190.909 49.6588 195.689 47.579C201.558 45.0236 207.54 42.6962 213.556 40.4933C221.101 37.7296 228.818 35.4149 236.305 32.4972C244.508 29.298 253.205 28.0502 261.555 25.4924C266.546 23.9636 271.758 23.2973 276.671 21.625C279.72 20.5885 283.28 21.1788 285.864 18.7293C292.007 18.6038 297.861 16.6799 303.892 15.8091C313.447 14.4304 322.905 12.3923 332.436 10.842C337.766 9.97566 343.257 9.95849 348.498 8.77786C354.004 7.53792 359.54 6.68088 365.105 6.39063C374.592 5.89544 384.04 4.89085 393.497 4.13237C404.769 3.22827 416.07 3.01352 427.327 2.13198C431.793 1.78191 436.272 1.82701 440.744 1.2921C447.129 0.528229 453.616 0.395378 460.053 0.73466C468.855 1.19897 477.656 0.993526 486.453 0.946949C489.851 0.928318 493.294 0.99842 496.73 0.734153C499.487 0.522347 502.751 1.06757 505.633 1.75495C509.143 2.59237 512.592 1.87603 516.047 2.30749C523.126 3.19247 530.322 2.45313 537.354 3.29986C543.784 4.07403 550.254 4.59372 556.668 5.5797C561.236 6.28131 565.881 6.48136 570.494 6.88536C576.658 7.42517 582.742 8.60236 588.879 9.27161C593.865 9.81534 598.711 11.1519 603.851 11.096C606.839 11.0636 610.002 12.6183 613.175 13.2052C618.678 14.2226 624.063 16.0053 629.594 16.7108C634.458 17.331 638.85 19.3525 643.568 20.3316C647.643 21.1768 651.786 21.9255 655.73 23.163C659.741 24.4211 663.887 24.9712 667.893 26.2254C673.226 27.8958 678.813 28.7582 684.138 30.4473C688.727 31.903 693.422 32.9149 698.011 34.3289C698.595 34.5093 698.878 35.0075 699.285 35.3963C700.13 36.2033 700.942 37.177 702.381 36.1067C703.143 35.5399 704.09 36.2126 704.935 36.5029C709.015 37.9051 712.515 40.6404 716.729 41.7078C723.546 43.4346 729.732 46.7426 735.97 49.7618C742.695 53.0168 749.872 55.229 756.254 59.346C762.695 63.5017 769.771 66.6616 776.372 70.5894C779.436 72.4128 781.866 75.279 784.873 77.2235C792.447 82.12 799.216 88.0864 806.371 93.5115C809.208 95.6629 812.202 98.0192 814.915 100.561C819.965 105.293 824.617 110.417 829.721 115.079C832.202 117.345 834.813 119.493 837.095 121.945C839.238 124.248 840.924 126.97 842.99 129.353C852.433 140.251 861.346 151.544 869.168 163.681C873.433 170.298 877.98 176.737 882.15 183.412C884.752 187.576 886.96 191.995 889.206 196.37C890.574 199.036 892.651 201.257 893.702 204.126C895.613 209.341 899.125 213.777 900.226 219.488C901.262 224.857 903.619 229.941 905.997 234.964C907.114 237.324 907.564 240.157 908.315 242.777C909.536 247.041 911.233 251.159 912.371 255.41C913.069 258.023 913.812 260.669 914.368 263.336C914.607 264.477 914.816 265.57 915.62 266.459C916.011 266.893 916.297 267.353 916.254 267.985C915.906 273.113 918.047 277.805 918.8 282.729C919.326 286.165 919.743 289.654 920.611 292.986C921.204 295.264 920.187 297.896 922.238 299.936C922.746 300.442 921.893 301.869 921.962 303.049C922.302 308.84 923.024 314.586 923.558 320.353C923.954 324.62 923.951 328.924 924.129 333.211C924.367 338.926 924.814 344.641 924.782 350.353C924.758 354.83 924.239 359.314 923.727 363.771C923.578 365.074 923.471 366.364 923.509 367.654C923.61 371.11 922.529 374.371 922.014 377.724C921.064 383.903 920.273 390.111 919.621 396.328C919.194 400.401 917.464 404.163 917.046 408.206C916.403 414.424 913.389 420.011 912.363 426.093C911.834 429.226 910.012 432.1 910.584 435.461C910.747 436.422 909.57 436.942 909.239 437.91C906.143 446.97 903.005 456.017 899.69 464.998C896.805 472.812 892.956 480.183 889.089 487.558C887.339 490.896 885.707 494.376 883.984 497.724C882.415 500.774 880.691 503.863 878.728 506.768C875.399 511.692 872.077 516.658 869.255 521.877C864.347 530.957 857.321 538.453 851.388 546.758C849.17 549.863 845.936 551.939 843.633 554.998C839.587 560.375 834.314 564.705 830.228 570.075C828.909 571.808 826.779 572.484 825.265 573.964C821.36 577.78 816.945 580.998 812.811 584.545C810.423 586.594 808.209 588.856 806.006 591.109C804.048 593.111 801.411 594.082 799.277 595.84C794.265 599.97 788.646 603.281 783.503 607.259C781.215 609.028 778.15 610.274 776.235 612.089C773.774 614.422 769.785 614.019 768.134 617.387C767.935 617.793 766.074 617.6 764.908 618.334C759.097 621.994 752.893 624.963 746.77 628.067C740.828 631.079 734.943 634.218 728.901 637.018C724.338 639.132 719.444 640.552 715.039 643.013C707.257 647.362 698.633 649.266 690.262 651.94C684.944 653.638 679.893 656.111 674.47 657.558C671.105 658.455 667.832 659.706 664.457 660.551C658.007 662.166 651.512 663.603 645.038 665.116C637.563 666.862 630.11 668.71 622.607 670.327C617.343 671.462 612.148 672.849 606.806 673.74C599.285 674.994 591.769 676.401 584.277 677.885C580.446 678.644 576.434 678.451 572.519 678.839C564.819 679.602 557.138 680.578 549.431 681.262C542.865 681.845 536.36 682.935 529.764 683.296C524.432 683.587 519.133 684.437 513.805 684.835C509.54 685.154 505.255 685.142 500.978 685.364C491.869 685.837 482.731 685.797 473.63 686.366C470.035 686.592 466.399 686.171 462.759 687.175C461.357 687.561 459.231 686.405 457.393 686.641C452.512 687.266 447.645 687.353 442.768 686.656C436.557 685.768 430.289 686.264 424.047 685.898C416.271 685.442 408.485 685.272 400.724 684.378C395.331 683.756 389.884 683.48 384.442 683.2C378.068 682.873 371.733 681.777 365.374 681.108C358.285 680.363 351.17 679.876 344.1 678.981C339.786 678.435 335.613 677.013 331.25 676.514C324.552 675.747 317.86 674.89 311.207 673.809C308.093 673.304 304.941 672.443 301.881 672.15C296.974 671.682 292.326 670.162 287.79 668.79C282.932 667.32 278.019 665.891 273.141 664.435C265.678 662.205 257.996 660.698 250.582 658.318C246.003 656.846 241.345 655.56 236.81 653.794C231.858 651.865 226.759 650.159 221.719 648.375C214.163 645.703 206.755 642.673 199.44 639.361C192.855 636.378 186.57 632.727 179.794 630.22C175.141 628.497 171.43 625.236 166.963 623.259C161.918 621.024 157.579 617.601 152.965 614.643C150.381 612.987 147.695 611.461 144.954 610.081C142.208 608.698 139.615 607.1 137.546 604.858C135.491 602.631 132.501 602.017 130.245 600.113C125.842 596.4 120.91 593.422 116.674 589.373C113.085 585.945 109.104 582.588 104.333 580.591C103.951 580.43 103.657 580.238 103.412 579.868C99.0578 573.313 92.836 568.499 87.2761 563.118C84.9668 560.887 83.4813 558.181 81.2946 555.94C77.5193 552.066 74.5972 547.457 70.6308 543.674C68.8853 542.01 67.7821 539.439 66.3064 537.327C63.8402 533.802 61.3397 530.312 58.6529 526.953C55.2552 522.713 52.3723 518.104 49.7002 513.4C46.8222 508.332 44.106 503.141 41.1005 498.173C37.8695 492.83 35.1385 487.231 31.9811 481.86C30.2405 478.904 29.5542 475.393 27.9019 472.311C23.5775 464.231 20.8613 455.5 17.6597 446.953C15.4828 441.155 13.7815 435.199 12.1929 429.298C10.0651 421.404 7.49109 413.565 6.96648 405.197C6.69682 400.871 5.12784 396.504 4.53459 392.079C4.20119 389.594 3.87763 387.108 3.40205 383.517Z"/>
</mask>
<path d="M3.40205 383.517C2.41657 381.502 3.89233 378.016 2.16651 374.916C1.00942 372.845 1.99488 370.217 0.484784 367.941C0.0239105 367.247 0.293616 364.536 0.837839 362.902C2.32342 358.4 1.63207 353.85 1.71051 349.273C1.84289 341.028 -0.0790109 332.836 1.13691 324.603C2.06846 318.303 1.70561 311.791 3.36279 305.687C4.31396 302.174 3.81879 298.463 5.47598 295.097C6.32418 293.371 5.56913 291.268 5.96627 289.32C7.22632 283.164 8.64325 277.046 10.0014 270.917C11.688 263.281 13.2618 255.579 15.4338 248.101C16.9635 242.824 18.2726 237.44 20.1896 232.242C24.1316 221.543 28.956 211.236 33.6236 200.856C36.9674 193.408 41.3653 186.527 45.5867 179.565C50.8475 170.883 56.0201 162.142 61.982 153.902C65.8406 148.571 70.1258 143.6 74.5041 138.708C79.8188 132.772 84.9669 126.671 90.5415 120.989C98.9647 112.407 107.305 103.744 116.429 95.854C123.018 90.1539 130.584 85.8173 137.212 80.2515C142.135 76.1174 148.141 73.7355 153.054 69.6421C154.206 68.6826 155.843 68.3321 157.167 67.5559C162.149 64.6451 166.978 61.4577 172.092 58.8067C175.171 57.2083 178.49 56.0081 181.628 54.4681C186.315 52.1686 190.909 49.6588 195.689 47.579C201.558 45.0236 207.54 42.6962 213.556 40.4933C221.101 37.7296 228.818 35.4149 236.305 32.4972C244.508 29.298 253.205 28.0502 261.555 25.4924C266.546 23.9636 271.758 23.2973 276.671 21.625C279.72 20.5885 283.28 21.1788 285.864 18.7293C292.007 18.6038 297.861 16.6799 303.892 15.8091C313.447 14.4304 322.905 12.3923 332.436 10.842C337.766 9.97566 343.257 9.95849 348.498 8.77786C354.004 7.53792 359.54 6.68088 365.105 6.39063C374.592 5.89544 384.04 4.89085 393.497 4.13237C404.769 3.22827 416.07 3.01352 427.327 2.13198C431.793 1.78191 436.272 1.82701 440.744 1.2921C447.129 0.528229 453.616 0.395378 460.053 0.73466C468.855 1.19897 477.656 0.993526 486.453 0.946949C489.851 0.928318 493.294 0.99842 496.73 0.734153C499.487 0.522347 502.751 1.06757 505.633 1.75495C509.143 2.59237 512.592 1.87603 516.047 2.30749C523.126 3.19247 530.322 2.45313 537.354 3.29986C543.784 4.07403 550.254 4.59372 556.668 5.5797C561.236 6.28131 565.881 6.48136 570.494 6.88536C576.658 7.42517 582.742 8.60236 588.879 9.27161C593.865 9.81534 598.711 11.1519 603.851 11.096C606.839 11.0636 610.002 12.6183 613.175 13.2052C618.678 14.2226 624.063 16.0053 629.594 16.7108C634.458 17.331 638.85 19.3525 643.568 20.3316C647.643 21.1768 651.786 21.9255 655.73 23.163C659.741 24.4211 663.887 24.9712 667.893 26.2254C673.226 27.8958 678.813 28.7582 684.138 30.4473C688.727 31.903 693.422 32.9149 698.011 34.3289C698.595 34.5093 698.878 35.0075 699.285 35.3963C700.13 36.2033 700.942 37.177 702.381 36.1067C703.143 35.5399 704.09 36.2126 704.935 36.5029C709.015 37.9051 712.515 40.6404 716.729 41.7078C723.546 43.4346 729.732 46.7426 735.97 49.7618C742.695 53.0168 749.872 55.229 756.254 59.346C762.695 63.5017 769.771 66.6616 776.372 70.5894C779.436 72.4128 781.866 75.279 784.873 77.2235C792.447 82.12 799.216 88.0864 806.371 93.5115C809.208 95.6629 812.202 98.0192 814.915 100.561C819.965 105.293 824.617 110.417 829.721 115.079C832.202 117.345 834.813 119.493 837.095 121.945C839.238 124.248 840.924 126.97 842.99 129.353C852.433 140.251 861.346 151.544 869.168 163.681C873.433 170.298 877.98 176.737 882.15 183.412C884.752 187.576 886.96 191.995 889.206 196.37C890.574 199.036 892.651 201.257 893.702 204.126C895.613 209.341 899.125 213.777 900.226 219.488C901.262 224.857 903.619 229.941 905.997 234.964C907.114 237.324 907.564 240.157 908.315 242.777C909.536 247.041 911.233 251.159 912.371 255.41C913.069 258.023 913.812 260.669 914.368 263.336C914.607 264.477 914.816 265.57 915.62 266.459C916.011 266.893 916.297 267.353 916.254 267.985C915.906 273.113 918.047 277.805 918.8 282.729C919.326 286.165 919.743 289.654 920.611 292.986C921.204 295.264 920.187 297.896 922.238 299.936C922.746 300.442 921.893 301.869 921.962 303.049C922.302 308.84 923.024 314.586 923.558 320.353C923.954 324.62 923.951 328.924 924.129 333.211C924.367 338.926 924.814 344.641 924.782 350.353C924.758 354.83 924.239 359.314 923.727 363.771C923.578 365.074 923.471 366.364 923.509 367.654C923.61 371.11 922.529 374.371 922.014 377.724C921.064 383.903 920.273 390.111 919.621 396.328C919.194 400.401 917.464 404.163 917.046 408.206C916.403 414.424 913.389 420.011 912.363 426.093C911.834 429.226 910.012 432.1 910.584 435.461C910.747 436.422 909.57 436.942 909.239 437.91C906.143 446.97 903.005 456.017 899.69 464.998C896.805 472.812 892.956 480.183 889.089 487.558C887.339 490.896 885.707 494.376 883.984 497.724C882.415 500.774 880.691 503.863 878.728 506.768C875.399 511.692 872.077 516.658 869.255 521.877C864.347 530.957 857.321 538.453 851.388 546.758C849.17 549.863 845.936 551.939 843.633 554.998C839.587 560.375 834.314 564.705 830.228 570.075C828.909 571.808 826.779 572.484 825.265 573.964C821.36 577.78 816.945 580.998 812.811 584.545C810.423 586.594 808.209 588.856 806.006 591.109C804.048 593.111 801.411 594.082 799.277 595.84C794.265 599.97 788.646 603.281 783.503 607.259C781.215 609.028 778.15 610.274 776.235 612.089C773.774 614.422 769.785 614.019 768.134 617.387C767.935 617.793 766.074 617.6 764.908 618.334C759.097 621.994 752.893 624.963 746.77 628.067C740.828 631.079 734.943 634.218 728.901 637.018C724.338 639.132 719.444 640.552 715.039 643.013C707.257 647.362 698.633 649.266 690.262 651.94C684.944 653.638 679.893 656.111 674.47 657.558C671.105 658.455 667.832 659.706 664.457 660.551C658.007 662.166 651.512 663.603 645.038 665.116C637.563 666.862 630.11 668.71 622.607 670.327C617.343 671.462 612.148 672.849 606.806 673.74C599.285 674.994 591.769 676.401 584.277 677.885C580.446 678.644 576.434 678.451 572.519 678.839C564.819 679.602 557.138 680.578 549.431 681.262C542.865 681.845 536.36 682.935 529.764 683.296C524.432 683.587 519.133 684.437 513.805 684.835C509.54 685.154 505.255 685.142 500.978 685.364C491.869 685.837 482.731 685.797 473.63 686.366C470.035 686.592 466.399 686.171 462.759 687.175C461.357 687.561 459.231 686.405 457.393 686.641C452.512 687.266 447.645 687.353 442.768 686.656C436.557 685.768 430.289 686.264 424.047 685.898C416.271 685.442 408.485 685.272 400.724 684.378C395.331 683.756 389.884 683.48 384.442 683.2C378.068 682.873 371.733 681.777 365.374 681.108C358.285 680.363 351.17 679.876 344.1 678.981C339.786 678.435 335.613 677.013 331.25 676.514C324.552 675.747 317.86 674.89 311.207 673.809C308.093 673.304 304.941 672.443 301.881 672.15C296.974 671.682 292.326 670.162 287.79 668.79C282.932 667.32 278.019 665.891 273.141 664.435C265.678 662.205 257.996 660.698 250.582 658.318C246.003 656.846 241.345 655.56 236.81 653.794C231.858 651.865 226.759 650.159 221.719 648.375C214.163 645.703 206.755 642.673 199.44 639.361C192.855 636.378 186.57 632.727 179.794 630.22C175.141 628.497 171.43 625.236 166.963 623.259C161.918 621.024 157.579 617.601 152.965 614.643C150.381 612.987 147.695 611.461 144.954 610.081C142.208 608.698 139.615 607.1 137.546 604.858C135.491 602.631 132.501 602.017 130.245 600.113C125.842 596.4 120.91 593.422 116.674 589.373C113.085 585.945 109.104 582.588 104.333 580.591C103.951 580.43 103.657 580.238 103.412 579.868C99.0578 573.313 92.836 568.499 87.2761 563.118C84.9668 560.887 83.4813 558.181 81.2946 555.94C77.5193 552.066 74.5972 547.457 70.6308 543.674C68.8853 542.01 67.7821 539.439 66.3064 537.327C63.8402 533.802 61.3397 530.312 58.6529 526.953C55.2552 522.713 52.3723 518.104 49.7002 513.4C46.8222 508.332 44.106 503.141 41.1005 498.173C37.8695 492.83 35.1385 487.231 31.9811 481.86C30.2405 478.904 29.5542 475.393 27.9019 472.311C23.5775 464.231 20.8613 455.5 17.6597 446.953C15.4828 441.155 13.7815 435.199 12.1929 429.298C10.0651 421.404 7.49109 413.565 6.96648 405.197C6.69682 400.871 5.12784 396.504 4.53459 392.079C4.20119 389.594 3.87763 387.108 3.40205 383.517Z" stroke="#DFD4BF" stroke-width="2.10481" mask="url(#path-1-inside-1_96_4077)"/>
</svg>
